%TF.GenerationSoftware,KiCad,Pcbnew,9.0.0*%
%TF.CreationDate,2025-10-30T20:26:06-05:00*%
%TF.ProjectId,kicad_proj1st,6b696361-645f-4707-926f-6a3173742e6b,rev?*%
%TF.SameCoordinates,Original*%
%TF.FileFunction,Profile,NP*%
%FSLAX46Y46*%
G04 Gerber Fmt 4.6, Leading zero omitted, Abs format (unit mm)*
G04 Created by KiCad (PCBNEW 9.0.0) date 2025-10-30 20:26:06*
%MOMM*%
%LPD*%
G01*
G04 APERTURE LIST*
%TA.AperFunction,Profile*%
%ADD10C,0.050000*%
%TD*%
G04 APERTURE END LIST*
D10*
X74250000Y-93633883D02*
G75*
G02*
X75500000Y-92383900I1250000J-17D01*
G01*
X74250000Y-97500000D02*
X74250000Y-93633883D01*
X101500000Y-88500000D02*
G75*
G02*
X98807418Y-88500000I-1346291J0D01*
G01*
X98807418Y-88500000D02*
G75*
G02*
X101500000Y-88500000I1346291J0D01*
G01*
X112500000Y-97500000D02*
G75*
G02*
X111250000Y-98750000I-1250000J0D01*
G01*
X49000000Y-40250000D02*
X49000000Y-97500000D01*
X86000000Y-92383883D02*
G75*
G02*
X87250017Y-93633883I0J-1250017D01*
G01*
X75500000Y-92383883D02*
X86000000Y-92383883D01*
X63500000Y-86750000D02*
G75*
G02*
X60807418Y-86750000I-1346291J0D01*
G01*
X60807418Y-86750000D02*
G75*
G02*
X63500000Y-86750000I1346291J0D01*
G01*
X87250000Y-93640419D02*
X87250000Y-97250000D01*
X50250000Y-98750000D02*
X73000000Y-98750000D01*
X52942582Y-41750000D02*
G75*
G02*
X50250000Y-41750000I-1346291J0D01*
G01*
X50250000Y-41750000D02*
G75*
G02*
X52942582Y-41750000I1346291J0D01*
G01*
X50000000Y-39250000D02*
X111250000Y-39250000D01*
X88750000Y-98750000D02*
X111250000Y-98750000D01*
X50250000Y-98750000D02*
G75*
G02*
X49000000Y-97500000I0J1250000D01*
G01*
X111000000Y-42000000D02*
G75*
G02*
X108307418Y-42000000I-1346291J0D01*
G01*
X108307418Y-42000000D02*
G75*
G02*
X111000000Y-42000000I1346291J0D01*
G01*
X74250000Y-97500000D02*
G75*
G02*
X73000000Y-98750000I-1250000J0D01*
G01*
X88750000Y-98750000D02*
G75*
G02*
X87250000Y-97250000I0J1500000D01*
G01*
X49000000Y-40250000D02*
G75*
G02*
X50000000Y-39250000I1000000J0D01*
G01*
X111250000Y-39250000D02*
G75*
G02*
X112500000Y-40500000I0J-1250000D01*
G01*
X112500000Y-40500000D02*
X112500000Y-97500000D01*
M02*
