%TF.GenerationSoftware,KiCad,Pcbnew,9.0.0*%
%TF.CreationDate,2025-10-30T20:26:06-05:00*%
%TF.ProjectId,kicad_proj1st,6b696361-645f-4707-926f-6a3173742e6b,rev?*%
%TF.SameCoordinates,Original*%
%TF.FileFunction,Copper,L4,Bot*%
%TF.FilePolarity,Positive*%
%FSLAX46Y46*%
G04 Gerber Fmt 4.6, Leading zero omitted, Abs format (unit mm)*
G04 Created by KiCad (PCBNEW 9.0.0) date 2025-10-30 20:26:06*
%MOMM*%
%LPD*%
G01*
G04 APERTURE LIST*
G04 Aperture macros list*
%AMRoundRect*
0 Rectangle with rounded corners*
0 $1 Rounding radius*
0 $2 $3 $4 $5 $6 $7 $8 $9 X,Y pos of 4 corners*
0 Add a 4 corners polygon primitive as box body*
4,1,4,$2,$3,$4,$5,$6,$7,$8,$9,$2,$3,0*
0 Add four circle primitives for the rounded corners*
1,1,$1+$1,$2,$3*
1,1,$1+$1,$4,$5*
1,1,$1+$1,$6,$7*
1,1,$1+$1,$8,$9*
0 Add four rect primitives between the rounded corners*
20,1,$1+$1,$2,$3,$4,$5,0*
20,1,$1+$1,$4,$5,$6,$7,0*
20,1,$1+$1,$6,$7,$8,$9,0*
20,1,$1+$1,$8,$9,$2,$3,0*%
G04 Aperture macros list end*
%TA.AperFunction,ComponentPad*%
%ADD10RoundRect,0.250000X0.625000X-0.350000X0.625000X0.350000X-0.625000X0.350000X-0.625000X-0.350000X0*%
%TD*%
%TA.AperFunction,ComponentPad*%
%ADD11O,1.750000X1.200000*%
%TD*%
%TA.AperFunction,ComponentPad*%
%ADD12RoundRect,0.250000X-0.625000X0.350000X-0.625000X-0.350000X0.625000X-0.350000X0.625000X0.350000X0*%
%TD*%
%TA.AperFunction,ComponentPad*%
%ADD13R,1.700000X1.700000*%
%TD*%
%TA.AperFunction,ComponentPad*%
%ADD14O,1.700000X1.700000*%
%TD*%
%TA.AperFunction,ComponentPad*%
%ADD15R,1.600000X1.600000*%
%TD*%
%TA.AperFunction,ComponentPad*%
%ADD16O,1.600000X1.600000*%
%TD*%
%TA.AperFunction,ComponentPad*%
%ADD17RoundRect,0.250000X-0.350000X-0.625000X0.350000X-0.625000X0.350000X0.625000X-0.350000X0.625000X0*%
%TD*%
%TA.AperFunction,ComponentPad*%
%ADD18O,1.200000X1.750000*%
%TD*%
%TA.AperFunction,ViaPad*%
%ADD19C,0.600000*%
%TD*%
%TA.AperFunction,Conductor*%
%ADD20C,0.200000*%
%TD*%
%TA.AperFunction,Conductor*%
%ADD21C,0.300000*%
%TD*%
G04 APERTURE END LIST*
D10*
%TO.P,J3,1,Pin_1*%
%TO.N,V_BAT*%
X104500000Y-45500000D03*
D11*
%TO.P,J3,2,Pin_2*%
%TO.N,/Motor_Drain_1*%
X104500000Y-43500000D03*
%TD*%
D12*
%TO.P,J5,1,Pin_1*%
%TO.N,V_BAT*%
X106250000Y-91000000D03*
D11*
%TO.P,J5,2,Pin_2*%
%TO.N,/Motor Drain 3*%
X106250000Y-93000000D03*
%TD*%
D13*
%TO.P,J2,1,Pin_1*%
%TO.N,GND*%
X54750000Y-61920000D03*
D14*
%TO.P,J2,2,Pin_2*%
%TO.N,+3V3*%
X54750000Y-64460000D03*
%TO.P,J2,3,Pin_3*%
%TO.N,R8EF_VIN*%
X54750000Y-67000000D03*
%TO.P,J2,4,Pin_4*%
%TO.N,V_OUT*%
X54750000Y-69540000D03*
%TO.P,J2,5,Pin_5*%
%TO.N,V_BAT*%
X54750000Y-72080000D03*
%TD*%
D15*
%TO.P,A2,1,D1/TX*%
%TO.N,unconnected-(A2-D1{slash}TX-Pad1)*%
X73140000Y-49950000D03*
D16*
%TO.P,A2,2,D0/RX*%
%TO.N,unconnected-(A2-D0{slash}RX-Pad2)*%
X73140000Y-52490000D03*
%TO.P,A2,3,~{RESET}*%
%TO.N,unconnected-(A2-~{RESET}-Pad3)*%
X73140000Y-55030000D03*
%TO.P,A2,4,GND*%
%TO.N,GND*%
X73140000Y-57570000D03*
%TO.P,A2,5,D2*%
%TO.N,unconnected-(A2-D2-Pad5)*%
X73140000Y-60110000D03*
%TO.P,A2,6,D3*%
%TO.N,/MOTOR0_SWITCH1*%
X73140000Y-62650000D03*
%TO.P,A2,7,D4*%
%TO.N,/LIDAR_GPIO1*%
X73140000Y-65190000D03*
%TO.P,A2,8,D5*%
%TO.N,/Motor Switch2*%
X73140000Y-67730000D03*
%TO.P,A2,9,D6*%
%TO.N,/Motor Switch 3*%
X73140000Y-70270000D03*
%TO.P,A2,10,D7*%
%TO.N,/LIDAR_XSHUT*%
X73140000Y-72810000D03*
%TO.P,A2,11,D8*%
%TO.N,unconnected-(A2-D8-Pad11)*%
X73140000Y-75350000D03*
%TO.P,A2,12,D9*%
%TO.N,/Motor Switch 4*%
X73140000Y-77890000D03*
%TO.P,A2,13,D10*%
%TO.N,unconnected-(A2-D10-Pad13)*%
X73140000Y-80430000D03*
%TO.P,A2,14,D11*%
%TO.N,unconnected-(A2-D11-Pad14)*%
X73140000Y-82970000D03*
%TO.P,A2,15,D12*%
%TO.N,unconnected-(A2-D12-Pad15)*%
X73140000Y-85510000D03*
%TO.P,A2,16,D13*%
%TO.N,unconnected-(A2-D13-Pad16)*%
X88380000Y-85510000D03*
%TO.P,A2,17,3V3*%
%TO.N,+3V3*%
X88380000Y-82970000D03*
%TO.P,A2,18,AREF*%
%TO.N,unconnected-(A2-AREF-Pad18)*%
X88380000Y-80430000D03*
%TO.P,A2,19,A0*%
%TO.N,unconnected-(A2-A0-Pad19)*%
X88380000Y-77890000D03*
%TO.P,A2,20,A1*%
%TO.N,CH1*%
X88380000Y-75350000D03*
%TO.P,A2,21,A2*%
%TO.N,CH2*%
X88380000Y-72810000D03*
%TO.P,A2,22,A3*%
%TO.N,CH3*%
X88380000Y-70270000D03*
%TO.P,A2,23,A4*%
%TO.N,CH4*%
X88380000Y-67730000D03*
%TO.P,A2,24,A5*%
%TO.N,unconnected-(A2-A5-Pad24)*%
X88380000Y-65190000D03*
%TO.P,A2,25,A6*%
%TO.N,unconnected-(A2-A6-Pad25)*%
X88380000Y-62650000D03*
%TO.P,A2,26,A7*%
%TO.N,unconnected-(A2-A7-Pad26)*%
X88380000Y-60110000D03*
%TO.P,A2,27,+5V*%
%TO.N,R8EF_VIN*%
X88380000Y-57570000D03*
%TO.P,A2,28,~{RESET}*%
%TO.N,unconnected-(A2-~{RESET}-Pad28)*%
X88380000Y-55030000D03*
%TO.P,A2,29,GND*%
%TO.N,GND*%
X88380000Y-52490000D03*
%TO.P,A2,30,VIN*%
%TO.N,V_OUT*%
X88380000Y-49950000D03*
%TD*%
D12*
%TO.P,J6,1,Pin_1*%
%TO.N,V_BAT*%
X56500000Y-90750000D03*
D11*
%TO.P,J6,2,Pin_2*%
%TO.N,/Motor Drain 4*%
X56500000Y-92750000D03*
%TD*%
D17*
%TO.P,J1,1,Pin_1*%
%TO.N,V_BAT*%
X62500000Y-56750000D03*
D18*
%TO.P,J1,2,Pin_2*%
%TO.N,GND*%
X64500000Y-56750000D03*
%TD*%
D17*
%TO.P,J4,1,Pin_1*%
%TO.N,V_BAT*%
X55750000Y-44500000D03*
D18*
%TO.P,J4,2,Pin_2*%
%TO.N,/Motor Drain 2*%
X57750000Y-44500000D03*
%TD*%
D19*
%TO.N,GND*%
X99650000Y-59650000D03*
X93725000Y-91575000D03*
X96100000Y-65275000D03*
X56975000Y-73325000D03*
X103875000Y-69325000D03*
X64925000Y-73875000D03*
X101125000Y-75650000D03*
X94950000Y-77775000D03*
X97350000Y-83675000D03*
X102046446Y-74821446D03*
X108950000Y-75700000D03*
X101675000Y-66825000D03*
X66325000Y-76875000D03*
X69325000Y-86500000D03*
X107225000Y-67500000D03*
X66525000Y-61025000D03*
X96050000Y-53300000D03*
X96675000Y-74975000D03*
X96150000Y-49825000D03*
X103450000Y-76225000D03*
X99750000Y-75975000D03*
X69375000Y-64600000D03*
X58350000Y-63275000D03*
X96750000Y-86850000D03*
X110500000Y-77225000D03*
X96550000Y-84575000D03*
X95175000Y-67325000D03*
X58550000Y-60500000D03*
X67950000Y-49950000D03*
X107425000Y-73150000D03*
X68175000Y-66650000D03*
X94125000Y-93650000D03*
X67500000Y-44075000D03*
X66400000Y-89575000D03*
X108475000Y-69775000D03*
X60500000Y-66125000D03*
X58050000Y-61400000D03*
X69550000Y-76225000D03*
X98675000Y-61300000D03*
%TO.N,+3V3*%
X99475000Y-63175000D03*
X105750000Y-58000000D03*
X70000000Y-68250000D03*
X91250000Y-67250000D03*
X102300000Y-63575000D03*
X93000000Y-79000000D03*
X60500000Y-62500000D03*
X65250000Y-62750000D03*
X69500000Y-63500000D03*
X98000000Y-58000000D03*
X93000000Y-81500000D03*
X91250000Y-84750000D03*
%TO.N,V_OUT*%
X58500000Y-72000000D03*
X85000000Y-81000000D03*
X79750000Y-48250000D03*
X69750000Y-48000000D03*
X70500000Y-88750000D03*
X75000000Y-88750000D03*
X85250000Y-86500000D03*
X65000000Y-73000000D03*
%TO.N,/LIDAR_GPIO1*%
X84250000Y-66250000D03*
X105750000Y-62250000D03*
%TO.N,R8EF_VIN*%
X63500000Y-64750000D03*
X69250000Y-57500000D03*
X85500000Y-57000000D03*
X60750000Y-67000000D03*
%TO.N,/LIDAR_XSHUT*%
X90750000Y-63500000D03*
X75750000Y-72750000D03*
%TO.N,Net-(U1-REGOUT)*%
X98550000Y-77925000D03*
X102325000Y-76775000D03*
%TO.N,Net-(U1-CPOUT)*%
X106750000Y-68750000D03*
X102000000Y-68750000D03*
%TO.N,V_BAT*%
X65675000Y-73225000D03*
X63625000Y-53050000D03*
X54600000Y-74500000D03*
X55825000Y-77500000D03*
X53375000Y-74700000D03*
X60400000Y-53900000D03*
%TO.N,Net-(U3-SW)*%
X65750000Y-75500000D03*
X65750000Y-66000000D03*
X67500000Y-67750000D03*
X66000000Y-81250000D03*
X66500000Y-72000000D03*
X67750000Y-82000000D03*
X63825000Y-68500000D03*
%TO.N,Net-(U3-VCC)*%
X96250000Y-82000000D03*
X60750000Y-69000000D03*
%TO.N,Net-(U3-COMP)*%
X59853554Y-70603554D03*
X61750000Y-68250000D03*
%TO.N,SCL*%
X100750000Y-65250000D03*
X101250000Y-68500000D03*
%TO.N,Net-(U3-FSW)*%
X64750000Y-66250000D03*
X68750000Y-68500000D03*
%TO.N,Net-(U3-ILIM)*%
X59250000Y-66250000D03*
X66250000Y-69750000D03*
%TO.N,Net-(U3-FB)*%
X61000000Y-71250000D03*
X59750000Y-74750000D03*
X61500000Y-70000000D03*
X64000000Y-74500000D03*
%TD*%
D20*
%TO.N,GND*%
X57450000Y-74925000D02*
X57450000Y-65750000D01*
X69375000Y-65450000D02*
X69375000Y-64600000D01*
X58350000Y-61700000D02*
X58050000Y-61400000D01*
D21*
X93725000Y-91575000D02*
X93725000Y-93250000D01*
D20*
X102350000Y-67500000D02*
X101675000Y-66825000D01*
X64925000Y-74575000D02*
X63600000Y-75900000D01*
X96100000Y-65275000D02*
X96100000Y-66400000D01*
X102046446Y-74821446D02*
X102225000Y-75000000D01*
X64925000Y-73875000D02*
X64925000Y-74575000D01*
X108950000Y-75700000D02*
X110475000Y-77225000D01*
X107225000Y-67500000D02*
X102350000Y-67500000D01*
X66325000Y-76875000D02*
X69550000Y-76875000D01*
X102225000Y-75000000D02*
X105575000Y-75000000D01*
X69325000Y-86500000D02*
X66400000Y-89425000D01*
X63600000Y-75900000D02*
X57300000Y-75900000D01*
X57450000Y-65750000D02*
X60125000Y-65750000D01*
X67500000Y-44075000D02*
X67500000Y-49500000D01*
X102875000Y-75650000D02*
X101125000Y-75650000D01*
X94950000Y-77775000D02*
X97350000Y-80175000D01*
X66525000Y-61025000D02*
X59075000Y-61025000D01*
X56975000Y-64145000D02*
X54750000Y-61920000D01*
X68175000Y-66650000D02*
X69375000Y-65450000D01*
X96550000Y-86650000D02*
X96750000Y-86850000D01*
X103875000Y-69325000D02*
X108025000Y-69325000D01*
D21*
X97350000Y-80175000D02*
X97350000Y-83675000D01*
D20*
X96100000Y-66400000D02*
X95175000Y-67325000D01*
X60125000Y-65750000D02*
X60500000Y-66125000D01*
X59075000Y-61025000D02*
X58550000Y-60500000D01*
X69550000Y-76875000D02*
X69675000Y-76750000D01*
X96150000Y-53200000D02*
X96050000Y-53300000D01*
X57300000Y-75900000D02*
X57300000Y-75075000D01*
X56975000Y-73325000D02*
X56975000Y-64145000D01*
X57300000Y-75075000D02*
X57450000Y-74925000D01*
X103450000Y-76225000D02*
X102875000Y-75650000D01*
X105575000Y-75000000D02*
X107425000Y-73150000D01*
X67500000Y-49500000D02*
X67950000Y-49950000D01*
X99650000Y-60325000D02*
X98675000Y-61300000D01*
X66400000Y-89425000D02*
X66400000Y-89575000D01*
X58350000Y-63275000D02*
X58350000Y-61700000D01*
D21*
X96550000Y-84575000D02*
X96550000Y-86650000D01*
D20*
X108025000Y-69325000D02*
X108475000Y-69775000D01*
D21*
X93725000Y-93250000D02*
X94125000Y-93650000D01*
D20*
X99750000Y-75975000D02*
X98750000Y-74975000D01*
X69675000Y-76750000D02*
X69675000Y-76350000D01*
X110475000Y-77225000D02*
X110500000Y-77225000D01*
X99650000Y-59650000D02*
X99650000Y-60325000D01*
X98750000Y-74975000D02*
X96675000Y-74975000D01*
D21*
X96150000Y-49825000D02*
X96150000Y-53200000D01*
D20*
X69675000Y-76350000D02*
X69550000Y-76225000D01*
D21*
%TO.N,+3V3*%
X105750000Y-58000000D02*
X98000000Y-58000000D01*
X101900000Y-63175000D02*
X99475000Y-63175000D01*
X93000000Y-79000000D02*
X93000000Y-81500000D01*
X65000000Y-62500000D02*
X65250000Y-62750000D01*
X60500000Y-62500000D02*
X65000000Y-62500000D01*
X70000000Y-64000000D02*
X70000000Y-68250000D01*
X91250000Y-67250000D02*
X91250000Y-84750000D01*
X69500000Y-63500000D02*
X70000000Y-64000000D01*
X102300000Y-63575000D02*
X101900000Y-63175000D01*
%TO.N,V_OUT*%
X58801000Y-72301000D02*
X60076000Y-72301000D01*
X60775000Y-73000000D02*
X64699000Y-73000000D01*
X69750000Y-48000000D02*
X79500000Y-48000000D01*
X85250000Y-81250000D02*
X85250000Y-86500000D01*
X70500000Y-88750000D02*
X75000000Y-88750000D01*
D20*
X64699000Y-73000000D02*
X65000000Y-73000000D01*
D21*
X60076000Y-72301000D02*
X60775000Y-73000000D01*
D20*
X79500000Y-48000000D02*
X79750000Y-48250000D01*
D21*
X85000000Y-81000000D02*
X85250000Y-81250000D01*
X58500000Y-72000000D02*
X58801000Y-72301000D01*
D20*
%TO.N,/LIDAR_GPIO1*%
X90500000Y-66750000D02*
X89941000Y-66191000D01*
X89941000Y-66191000D02*
X84309000Y-66191000D01*
X105750000Y-62250000D02*
X95000000Y-62250000D01*
X95000000Y-62250000D02*
X90500000Y-66750000D01*
X84309000Y-66191000D02*
X84250000Y-66250000D01*
%TO.N,R8EF_VIN*%
X70181000Y-56569000D02*
X85069000Y-56569000D01*
X85069000Y-56569000D02*
X85500000Y-57000000D01*
X60750000Y-67000000D02*
X63000000Y-64750000D01*
X69250000Y-57500000D02*
X70181000Y-56569000D01*
X63000000Y-64750000D02*
X63500000Y-64750000D01*
%TO.N,/LIDAR_XSHUT*%
X90750000Y-63500000D02*
X90599000Y-63651000D01*
X90599000Y-63651000D02*
X84849000Y-63651000D01*
X84849000Y-63651000D02*
X75750000Y-72750000D01*
%TO.N,Net-(U1-REGOUT)*%
X102325000Y-76775000D02*
X101800000Y-76250000D01*
X99875000Y-77925000D02*
X98550000Y-77925000D01*
X101550000Y-76250000D02*
X99875000Y-77925000D01*
X101800000Y-76250000D02*
X101550000Y-76250000D01*
%TO.N,Net-(U1-CPOUT)*%
X106750000Y-68750000D02*
X102000000Y-68750000D01*
D21*
%TO.N,V_BAT*%
X63699000Y-76501000D02*
X56601000Y-76501000D01*
X55825000Y-77150000D02*
X53375000Y-74700000D01*
X63625000Y-53050000D02*
X61250000Y-53050000D01*
X65675000Y-74525000D02*
X63699000Y-76501000D01*
X56601000Y-76501000D02*
X54600000Y-74500000D01*
X61250000Y-53050000D02*
X60400000Y-53900000D01*
X65675000Y-73225000D02*
X65675000Y-74525000D01*
X55825000Y-77500000D02*
X55825000Y-77150000D01*
D20*
%TO.N,Net-(U3-SW)*%
X67750000Y-82000000D02*
X66750000Y-82000000D01*
X65750000Y-75500000D02*
X66500000Y-74750000D01*
X66500000Y-74750000D02*
X66500000Y-72000000D01*
X66750000Y-82000000D02*
X66000000Y-81250000D01*
X67500000Y-67750000D02*
X65750000Y-66000000D01*
%TO.N,Net-(U3-VCC)*%
X96250000Y-82000000D02*
X90250000Y-88000000D01*
X90250000Y-88000000D02*
X70250000Y-88000000D01*
X59125000Y-70625000D02*
X60750000Y-69000000D01*
X65250000Y-72000000D02*
X60500000Y-72000000D01*
X70250000Y-88000000D02*
X70250000Y-69750000D01*
X70250000Y-69750000D02*
X70000000Y-69500000D01*
X60500000Y-72000000D02*
X59125000Y-70625000D01*
X67750000Y-69500000D02*
X65250000Y-72000000D01*
X70000000Y-69500000D02*
X67750000Y-69500000D01*
%TO.N,Net-(U3-COMP)*%
X61750000Y-68707108D02*
X59853554Y-70603554D01*
X61750000Y-68250000D02*
X61750000Y-68707108D01*
%TO.N,SCL*%
X100750000Y-65250000D02*
X100750000Y-68000000D01*
X100750000Y-68000000D02*
X101250000Y-68500000D01*
%TO.N,Net-(U3-FSW)*%
X67000000Y-68500000D02*
X68750000Y-68500000D01*
X64750000Y-66250000D02*
X67000000Y-68500000D01*
%TO.N,Net-(U3-ILIM)*%
X66250000Y-69000000D02*
X66250000Y-69750000D01*
X60750000Y-67750000D02*
X61250000Y-67750000D01*
X61250000Y-67750000D02*
X62500000Y-66500000D01*
X59250000Y-66250000D02*
X60750000Y-67750000D01*
X63750000Y-66500000D02*
X66250000Y-69000000D01*
X62500000Y-66500000D02*
X63750000Y-66500000D01*
%TO.N,Net-(U3-FB)*%
X61000000Y-70500000D02*
X61500000Y-70000000D01*
X63750000Y-74750000D02*
X59750000Y-74750000D01*
X61000000Y-71250000D02*
X61000000Y-70500000D01*
X64000000Y-74500000D02*
X63750000Y-74750000D01*
%TD*%
%TA.AperFunction,Conductor*%
%TO.N,GND*%
G36*
X111250558Y-39750555D02*
G01*
X111395093Y-39764790D01*
X111397304Y-39765230D01*
X111466520Y-39786226D01*
X111535738Y-39807223D01*
X111537820Y-39808086D01*
X111665403Y-39876281D01*
X111667267Y-39877526D01*
X111742988Y-39939667D01*
X111779101Y-39969304D01*
X111780695Y-39970898D01*
X111872471Y-40082729D01*
X111873720Y-40084599D01*
X111941913Y-40212179D01*
X111942776Y-40214262D01*
X111984769Y-40352695D01*
X111985209Y-40354906D01*
X111999445Y-40499441D01*
X111999500Y-40500568D01*
X111999500Y-97499431D01*
X111999445Y-97500558D01*
X111985209Y-97645093D01*
X111984769Y-97647304D01*
X111942776Y-97785737D01*
X111941913Y-97787820D01*
X111873720Y-97915400D01*
X111872468Y-97917275D01*
X111780695Y-98029101D01*
X111779101Y-98030695D01*
X111667275Y-98122468D01*
X111665400Y-98123720D01*
X111537820Y-98191913D01*
X111535737Y-98192776D01*
X111397304Y-98234769D01*
X111395093Y-98235209D01*
X111250558Y-98249445D01*
X111249431Y-98249500D01*
X88750499Y-98249500D01*
X88749497Y-98249456D01*
X88577441Y-98234402D01*
X88575467Y-98234054D01*
X88409126Y-98189484D01*
X88407242Y-98188799D01*
X88251158Y-98116015D01*
X88249422Y-98115012D01*
X88108361Y-98016240D01*
X88106825Y-98014952D01*
X87985047Y-97893174D01*
X87983759Y-97891638D01*
X87884987Y-97750577D01*
X87883984Y-97748841D01*
X87836636Y-97647304D01*
X87811198Y-97592753D01*
X87810515Y-97590873D01*
X87765945Y-97424532D01*
X87765597Y-97422558D01*
X87750544Y-97250502D01*
X87750500Y-97249500D01*
X87750500Y-93699771D01*
X87750501Y-93699768D01*
X87750500Y-93638654D01*
X87750516Y-93638613D01*
X87750516Y-93633876D01*
X87750517Y-93633876D01*
X87750516Y-93508678D01*
X87714878Y-93260830D01*
X87644330Y-93020577D01*
X87603424Y-92931007D01*
X105274500Y-92931007D01*
X105274500Y-93068993D01*
X105292284Y-93158399D01*
X105301419Y-93204324D01*
X105301419Y-93204327D01*
X105354226Y-93331813D01*
X105380260Y-93370775D01*
X105430886Y-93446542D01*
X105528458Y-93544114D01*
X105643189Y-93620775D01*
X105770672Y-93673580D01*
X105906007Y-93700500D01*
X105906009Y-93700500D01*
X106593991Y-93700500D01*
X106593993Y-93700500D01*
X106729328Y-93673580D01*
X106856811Y-93620775D01*
X106971542Y-93544114D01*
X107069114Y-93446542D01*
X107145775Y-93331811D01*
X107198580Y-93204328D01*
X107225500Y-93068993D01*
X107225500Y-92931007D01*
X107198580Y-92795672D01*
X107145775Y-92668189D01*
X107069114Y-92553458D01*
X106971542Y-92455886D01*
X106915125Y-92418189D01*
X106856813Y-92379226D01*
X106729326Y-92326419D01*
X106647831Y-92310209D01*
X106593993Y-92299500D01*
X105906007Y-92299500D01*
X105838800Y-92312868D01*
X105770675Y-92326419D01*
X105770672Y-92326419D01*
X105643186Y-92379226D01*
X105528461Y-92455883D01*
X105430883Y-92553461D01*
X105354226Y-92668186D01*
X105301419Y-92795672D01*
X105301419Y-92795675D01*
X105296781Y-92818993D01*
X105274500Y-92931007D01*
X87603424Y-92931007D01*
X87540309Y-92792809D01*
X87468458Y-92681008D01*
X87404937Y-92582168D01*
X87404928Y-92582157D01*
X87295511Y-92455886D01*
X87240956Y-92392927D01*
X87051718Y-92228953D01*
X87051715Y-92228951D01*
X87051714Y-92228950D01*
X87051713Y-92228949D01*
X86841082Y-92093586D01*
X86841074Y-92093581D01*
X86841070Y-92093579D01*
X86841065Y-92093577D01*
X86841062Y-92093575D01*
X86742790Y-92048696D01*
X86613301Y-91989562D01*
X86546459Y-91969935D01*
X86373053Y-91919018D01*
X86373047Y-91919017D01*
X86125198Y-91883382D01*
X86125194Y-91883382D01*
X86000000Y-91883383D01*
X75433478Y-91883383D01*
X75433221Y-91883400D01*
X75374803Y-91883400D01*
X75129699Y-91918640D01*
X75126950Y-91919036D01*
X74886706Y-91989579D01*
X74886705Y-91989579D01*
X74658931Y-92093598D01*
X74448297Y-92228963D01*
X74448296Y-92228964D01*
X74259061Y-92392936D01*
X74259053Y-92392944D01*
X74095086Y-92582168D01*
X74095077Y-92582179D01*
X73959714Y-92792805D01*
X73959703Y-92792825D01*
X73855687Y-93020582D01*
X73855687Y-93020583D01*
X73785141Y-93260827D01*
X73749501Y-93508682D01*
X73749501Y-93567277D01*
X73749500Y-93567295D01*
X73749500Y-93633876D01*
X73749499Y-93700688D01*
X73749500Y-93700701D01*
X73749500Y-97499431D01*
X73749445Y-97500558D01*
X73735209Y-97645093D01*
X73734769Y-97647304D01*
X73692776Y-97785737D01*
X73691913Y-97787820D01*
X73623720Y-97915400D01*
X73622468Y-97917275D01*
X73530695Y-98029101D01*
X73529101Y-98030695D01*
X73417275Y-98122468D01*
X73415400Y-98123720D01*
X73287820Y-98191913D01*
X73285737Y-98192776D01*
X73147304Y-98234769D01*
X73145093Y-98235209D01*
X73000558Y-98249445D01*
X72999431Y-98249500D01*
X50250569Y-98249500D01*
X50249442Y-98249445D01*
X50104906Y-98235209D01*
X50102695Y-98234769D01*
X49964262Y-98192776D01*
X49962179Y-98191913D01*
X49834599Y-98123720D01*
X49832729Y-98122471D01*
X49720898Y-98030695D01*
X49719304Y-98029101D01*
X49707692Y-98014952D01*
X49627526Y-97917267D01*
X49626279Y-97915400D01*
X49615064Y-97894419D01*
X49558086Y-97787820D01*
X49557223Y-97785737D01*
X49515230Y-97647304D01*
X49514790Y-97645093D01*
X49500555Y-97500558D01*
X49500500Y-97499431D01*
X49500500Y-92681008D01*
X55524500Y-92681008D01*
X55524500Y-92818991D01*
X55551419Y-92954324D01*
X55551419Y-92954327D01*
X55604226Y-93081813D01*
X55680883Y-93196538D01*
X55680886Y-93196542D01*
X55778458Y-93294114D01*
X55893189Y-93370775D01*
X56020672Y-93423580D01*
X56156007Y-93450500D01*
X56156009Y-93450500D01*
X56843991Y-93450500D01*
X56843993Y-93450500D01*
X56979328Y-93423580D01*
X57106811Y-93370775D01*
X57221542Y-93294114D01*
X57319114Y-93196542D01*
X57395775Y-93081811D01*
X57448580Y-92954328D01*
X57475500Y-92818993D01*
X57475500Y-92681007D01*
X57448580Y-92545672D01*
X57395775Y-92418189D01*
X57319114Y-92303458D01*
X57221542Y-92205886D01*
X57221538Y-92205883D01*
X57106813Y-92129226D01*
X56979326Y-92076419D01*
X56897831Y-92060209D01*
X56843993Y-92049500D01*
X56156007Y-92049500D01*
X56088800Y-92062868D01*
X56020675Y-92076419D01*
X56020672Y-92076419D01*
X55893186Y-92129226D01*
X55778461Y-92205883D01*
X55680883Y-92303461D01*
X55604226Y-92418186D01*
X55551419Y-92545672D01*
X55551419Y-92545675D01*
X55524500Y-92681008D01*
X49500500Y-92681008D01*
X49500500Y-90366740D01*
X55524500Y-90366740D01*
X55524500Y-91133260D01*
X55534427Y-91201393D01*
X55585802Y-91306483D01*
X55668517Y-91389198D01*
X55773607Y-91440573D01*
X55841740Y-91450500D01*
X57158260Y-91450500D01*
X57226393Y-91440573D01*
X57331483Y-91389198D01*
X57414198Y-91306483D01*
X57465573Y-91201393D01*
X57475500Y-91133260D01*
X57475500Y-90616740D01*
X105274500Y-90616740D01*
X105274500Y-91383260D01*
X105284427Y-91451393D01*
X105335802Y-91556483D01*
X105418517Y-91639198D01*
X105523607Y-91690573D01*
X105591740Y-91700500D01*
X106908260Y-91700500D01*
X106976393Y-91690573D01*
X107081483Y-91639198D01*
X107164198Y-91556483D01*
X107215573Y-91451393D01*
X107225500Y-91383260D01*
X107225500Y-90616740D01*
X107215573Y-90548607D01*
X107164198Y-90443517D01*
X107081483Y-90360802D01*
X106976393Y-90309427D01*
X106908260Y-90299500D01*
X105591740Y-90299500D01*
X105523607Y-90309427D01*
X105447177Y-90346791D01*
X105418515Y-90360803D01*
X105335803Y-90443515D01*
X105335802Y-90443516D01*
X105335802Y-90443517D01*
X105284427Y-90548607D01*
X105274500Y-90616740D01*
X57475500Y-90616740D01*
X57475500Y-90366740D01*
X57465573Y-90298607D01*
X57414198Y-90193517D01*
X57331483Y-90110802D01*
X57226393Y-90059427D01*
X57158260Y-90049500D01*
X55841740Y-90049500D01*
X55773607Y-90059427D01*
X55668517Y-90110802D01*
X55668515Y-90110803D01*
X55585803Y-90193515D01*
X55585802Y-90193516D01*
X55585802Y-90193517D01*
X55534427Y-90298607D01*
X55524500Y-90366740D01*
X49500500Y-90366740D01*
X49500500Y-88697273D01*
X70099500Y-88697273D01*
X70099500Y-88802727D01*
X70126793Y-88904587D01*
X70179520Y-88995913D01*
X70254087Y-89070480D01*
X70345413Y-89123207D01*
X70447273Y-89150500D01*
X70552727Y-89150500D01*
X70654587Y-89123207D01*
X70745913Y-89070480D01*
X70812525Y-89003868D01*
X70820657Y-89000500D01*
X74679343Y-89000500D01*
X74687475Y-89003868D01*
X74754087Y-89070480D01*
X74845413Y-89123207D01*
X74947273Y-89150500D01*
X75052727Y-89150500D01*
X75154587Y-89123207D01*
X75245913Y-89070480D01*
X75320480Y-88995913D01*
X75373207Y-88904587D01*
X75400500Y-88802727D01*
X75400500Y-88697273D01*
X75373207Y-88595413D01*
X75320480Y-88504087D01*
X75245913Y-88429520D01*
X75245912Y-88429519D01*
X75174930Y-88388538D01*
X75158332Y-88378955D01*
X98306918Y-88378955D01*
X98306918Y-88417098D01*
X98306918Y-88621045D01*
X98338517Y-88861064D01*
X98338518Y-88861068D01*
X98338519Y-88861075D01*
X98338519Y-88861076D01*
X98401172Y-89094899D01*
X98401172Y-89094900D01*
X98493819Y-89318571D01*
X98614860Y-89528220D01*
X98614862Y-89528223D01*
X98614863Y-89528224D01*
X98762238Y-89720287D01*
X98933422Y-89891471D01*
X99125485Y-90038846D01*
X99125488Y-90038848D01*
X99335137Y-90159889D01*
X99335138Y-90159889D01*
X99335141Y-90159891D01*
X99558804Y-90252535D01*
X99558808Y-90252536D01*
X99792633Y-90315189D01*
X99792634Y-90315189D01*
X99792645Y-90315192D01*
X100032664Y-90346791D01*
X100032668Y-90346791D01*
X100274750Y-90346791D01*
X100274754Y-90346791D01*
X100514773Y-90315192D01*
X100514784Y-90315189D01*
X100514785Y-90315189D01*
X100576670Y-90298607D01*
X100748614Y-90252535D01*
X100972277Y-90159891D01*
X101181933Y-90038846D01*
X101373996Y-89891471D01*
X101545180Y-89720287D01*
X101692555Y-89528224D01*
X101813600Y-89318568D01*
X101906244Y-89094905D01*
X101968901Y-88861064D01*
X102000500Y-88621045D01*
X102000500Y-88378955D01*
X101968901Y-88138936D01*
X101962105Y-88113574D01*
X101932106Y-88001616D01*
X101906244Y-87905095D01*
X101813600Y-87681432D01*
X101800234Y-87658282D01*
X101692557Y-87471779D01*
X101692555Y-87471776D01*
X101545180Y-87279713D01*
X101373996Y-87108529D01*
X101181933Y-86961154D01*
X101181932Y-86961153D01*
X101181929Y-86961151D01*
X100972280Y-86840110D01*
X100748609Y-86747463D01*
X100514784Y-86684810D01*
X100514777Y-86684809D01*
X100514773Y-86684808D01*
X100320989Y-86659295D01*
X100274755Y-86653209D01*
X100274754Y-86653209D01*
X100032664Y-86653209D01*
X100032662Y-86653209D01*
X99940193Y-86665382D01*
X99792645Y-86684808D01*
X99792641Y-86684808D01*
X99792633Y-86684810D01*
X99792632Y-86684810D01*
X99558809Y-86747463D01*
X99558808Y-86747463D01*
X99335137Y-86840110D01*
X99125488Y-86961151D01*
X99080698Y-86995520D01*
X98933422Y-87108529D01*
X98933417Y-87108534D01*
X98933415Y-87108535D01*
X98762244Y-87279706D01*
X98762243Y-87279708D01*
X98762238Y-87279713D01*
X98670128Y-87399752D01*
X98614860Y-87471779D01*
X98493819Y-87681428D01*
X98401172Y-87905099D01*
X98401172Y-87905100D01*
X98338519Y-88138923D01*
X98338519Y-88138924D01*
X98338517Y-88138932D01*
X98338517Y-88138936D01*
X98334431Y-88169974D01*
X98307203Y-88376793D01*
X98306918Y-88378955D01*
X75158332Y-88378955D01*
X75154591Y-88376795D01*
X75154589Y-88376794D01*
X75154587Y-88376793D01*
X75154583Y-88376792D01*
X75154581Y-88376791D01*
X75052727Y-88349500D01*
X74947273Y-88349500D01*
X74845418Y-88376791D01*
X74845408Y-88376795D01*
X74754087Y-88429519D01*
X74687475Y-88496132D01*
X74679343Y-88499500D01*
X70820657Y-88499500D01*
X70812525Y-88496132D01*
X70745912Y-88429519D01*
X70654591Y-88376795D01*
X70654589Y-88376794D01*
X70654587Y-88376793D01*
X70654583Y-88376792D01*
X70654581Y-88376791D01*
X70552727Y-88349500D01*
X70447273Y-88349500D01*
X70345418Y-88376791D01*
X70345408Y-88376795D01*
X70254087Y-88429519D01*
X70179519Y-88504087D01*
X70126795Y-88595408D01*
X70126791Y-88595418D01*
X70099500Y-88697273D01*
X49500500Y-88697273D01*
X49500500Y-86628955D01*
X60306918Y-86628955D01*
X60306918Y-86667098D01*
X60306918Y-86871045D01*
X60338517Y-87111064D01*
X60338518Y-87111068D01*
X60338519Y-87111075D01*
X60338519Y-87111076D01*
X60401172Y-87344899D01*
X60401172Y-87344900D01*
X60493819Y-87568571D01*
X60614860Y-87778220D01*
X60614862Y-87778223D01*
X60614863Y-87778224D01*
X60762238Y-87970287D01*
X60933422Y-88141471D01*
X61125485Y-88288846D01*
X61125488Y-88288848D01*
X61335137Y-88409889D01*
X61335138Y-88409889D01*
X61335141Y-88409891D01*
X61558804Y-88502535D01*
X61558808Y-88502536D01*
X61792633Y-88565189D01*
X61792634Y-88565189D01*
X61792645Y-88565192D01*
X62032664Y-88596791D01*
X62032668Y-88596791D01*
X62274750Y-88596791D01*
X62274754Y-88596791D01*
X62514773Y-88565192D01*
X62514784Y-88565189D01*
X62514785Y-88565189D01*
X62575968Y-88548794D01*
X62748614Y-88502535D01*
X62972277Y-88409891D01*
X63181933Y-88288846D01*
X63373996Y-88141471D01*
X63545180Y-87970287D01*
X63692555Y-87778224D01*
X63813600Y-87568568D01*
X63906244Y-87344905D01*
X63968901Y-87111064D01*
X64000500Y-86871045D01*
X64000500Y-86628955D01*
X63968901Y-86388936D01*
X63965406Y-86375894D01*
X63921876Y-86213436D01*
X63906244Y-86155095D01*
X63813600Y-85931432D01*
X63800234Y-85908282D01*
X63692557Y-85721779D01*
X63692555Y-85721776D01*
X63545180Y-85529713D01*
X63373996Y-85358529D01*
X63181933Y-85211154D01*
X63181932Y-85211153D01*
X63181929Y-85211151D01*
X62972280Y-85090110D01*
X62748609Y-84997463D01*
X62514784Y-84934810D01*
X62514777Y-84934809D01*
X62514773Y-84934808D01*
X62320989Y-84909295D01*
X62274755Y-84903209D01*
X62274754Y-84903209D01*
X62032664Y-84903209D01*
X62032662Y-84903209D01*
X61940193Y-84915382D01*
X61792645Y-84934808D01*
X61792641Y-84934808D01*
X61792633Y-84934810D01*
X61792632Y-84934810D01*
X61558809Y-84997463D01*
X61558808Y-84997463D01*
X61335137Y-85090110D01*
X61125488Y-85211151D01*
X61078334Y-85247334D01*
X60933422Y-85358529D01*
X60933417Y-85358534D01*
X60933415Y-85358535D01*
X60762244Y-85529706D01*
X60762243Y-85529708D01*
X60762238Y-85529713D01*
X60670128Y-85649752D01*
X60614860Y-85721779D01*
X60493819Y-85931428D01*
X60401172Y-86155099D01*
X60401172Y-86155100D01*
X60338519Y-86388923D01*
X60338519Y-86388924D01*
X60338517Y-86388932D01*
X60338517Y-86388936D01*
X60306918Y-86628955D01*
X49500500Y-86628955D01*
X49500500Y-81197273D01*
X65599500Y-81197273D01*
X65599500Y-81302726D01*
X65626791Y-81404581D01*
X65626795Y-81404591D01*
X65651437Y-81447273D01*
X65679520Y-81495913D01*
X65754087Y-81570480D01*
X65845413Y-81623207D01*
X65947273Y-81650500D01*
X66052726Y-81650500D01*
X66052727Y-81650500D01*
X66096965Y-81638646D01*
X66105690Y-81639795D01*
X66108072Y-81641622D01*
X66636426Y-82169976D01*
X66710118Y-82200500D01*
X66789882Y-82200500D01*
X67396662Y-82200500D01*
X67404794Y-82203868D01*
X67406619Y-82206248D01*
X67429520Y-82245913D01*
X67504087Y-82320480D01*
X67595413Y-82373207D01*
X67697273Y-82400500D01*
X67802727Y-82400500D01*
X67904587Y-82373207D01*
X67995913Y-82320480D01*
X68070480Y-82245913D01*
X68123207Y-82154587D01*
X68150500Y-82052727D01*
X68150500Y-81947273D01*
X68123207Y-81845413D01*
X68070480Y-81754087D01*
X67995913Y-81679520D01*
X67995912Y-81679519D01*
X67904591Y-81626795D01*
X67904589Y-81626794D01*
X67904587Y-81626793D01*
X67904583Y-81626792D01*
X67904581Y-81626791D01*
X67802727Y-81599500D01*
X67697273Y-81599500D01*
X67595418Y-81626791D01*
X67595408Y-81626795D01*
X67504087Y-81679519D01*
X67429519Y-81754087D01*
X67406621Y-81793750D01*
X67399639Y-81799108D01*
X67396662Y-81799500D01*
X66837814Y-81799500D01*
X66829682Y-81796132D01*
X66391622Y-81358072D01*
X66388254Y-81349940D01*
X66388645Y-81346969D01*
X66400500Y-81302727D01*
X66400500Y-81197273D01*
X66373207Y-81095413D01*
X66320480Y-81004087D01*
X66245913Y-80929520D01*
X66245912Y-80929519D01*
X66154591Y-80876795D01*
X66154589Y-80876794D01*
X66154587Y-80876793D01*
X66154583Y-80876792D01*
X66154581Y-80876791D01*
X66052727Y-80849500D01*
X65947273Y-80849500D01*
X65845418Y-80876791D01*
X65845408Y-80876795D01*
X65754087Y-80929519D01*
X65679519Y-81004087D01*
X65626795Y-81095408D01*
X65626791Y-81095418D01*
X65599500Y-81197273D01*
X49500500Y-81197273D01*
X49500500Y-74647273D01*
X52974500Y-74647273D01*
X52974500Y-74752726D01*
X53001791Y-74854581D01*
X53001795Y-74854591D01*
X53041552Y-74923453D01*
X53054520Y-74945913D01*
X53129087Y-75020480D01*
X53220413Y-75073207D01*
X53322273Y-75100500D01*
X53416475Y-75100500D01*
X53424607Y-75103868D01*
X55531541Y-77210802D01*
X55534909Y-77218934D01*
X55531541Y-77227066D01*
X55504519Y-77254087D01*
X55451795Y-77345408D01*
X55451791Y-77345418D01*
X55424500Y-77447273D01*
X55424500Y-77552726D01*
X55451791Y-77654581D01*
X55451795Y-77654591D01*
X55490212Y-77721132D01*
X55504520Y-77745913D01*
X55579087Y-77820480D01*
X55670413Y-77873207D01*
X55772273Y-77900500D01*
X55877727Y-77900500D01*
X55979587Y-77873207D01*
X56070913Y-77820480D01*
X56145480Y-77745913D01*
X56198207Y-77654587D01*
X56225500Y-77552727D01*
X56225500Y-77447273D01*
X56198207Y-77345413D01*
X56145480Y-77254087D01*
X56078868Y-77187475D01*
X56075500Y-77179343D01*
X56075500Y-77100173D01*
X56075500Y-77100172D01*
X56037364Y-77008103D01*
X55966897Y-76937636D01*
X53778868Y-74749607D01*
X53775500Y-74741475D01*
X53775500Y-74647273D01*
X53748207Y-74545413D01*
X53695480Y-74454087D01*
X53688666Y-74447273D01*
X54199500Y-74447273D01*
X54199500Y-74552726D01*
X54226791Y-74654581D01*
X54226795Y-74654591D01*
X54276957Y-74741475D01*
X54279520Y-74745913D01*
X54354087Y-74820480D01*
X54445413Y-74873207D01*
X54547273Y-74900500D01*
X54641475Y-74900500D01*
X54649607Y-74903868D01*
X56459103Y-76713364D01*
X56551172Y-76751500D01*
X56551173Y-76751500D01*
X63748826Y-76751500D01*
X63748828Y-76751500D01*
X63840897Y-76713364D01*
X65106988Y-75447273D01*
X65349500Y-75447273D01*
X65349500Y-75552727D01*
X65376793Y-75654587D01*
X65429520Y-75745913D01*
X65504087Y-75820480D01*
X65595413Y-75873207D01*
X65697273Y-75900500D01*
X65802727Y-75900500D01*
X65904587Y-75873207D01*
X65995913Y-75820480D01*
X66070480Y-75745913D01*
X66123207Y-75654587D01*
X66150500Y-75552727D01*
X66150500Y-75447273D01*
X66138646Y-75403033D01*
X66139795Y-75394308D01*
X66141618Y-75391930D01*
X66669976Y-74863574D01*
X66700500Y-74789882D01*
X66700500Y-74710118D01*
X66700500Y-72353338D01*
X66703868Y-72345206D01*
X66706250Y-72343379D01*
X66745913Y-72320480D01*
X66820480Y-72245913D01*
X66873207Y-72154587D01*
X66900500Y-72052727D01*
X66900500Y-71947273D01*
X66873207Y-71845413D01*
X66820480Y-71754087D01*
X66745913Y-71679520D01*
X66745912Y-71679519D01*
X66654591Y-71626795D01*
X66654589Y-71626794D01*
X66654587Y-71626793D01*
X66654583Y-71626792D01*
X66654581Y-71626791D01*
X66552727Y-71599500D01*
X66447273Y-71599500D01*
X66345418Y-71626791D01*
X66345408Y-71626795D01*
X66254087Y-71679519D01*
X66179519Y-71754087D01*
X66126795Y-71845408D01*
X66126791Y-71845418D01*
X66099500Y-71947273D01*
X66099500Y-72052726D01*
X66126791Y-72154581D01*
X66126795Y-72154591D01*
X66179519Y-72245912D01*
X66254087Y-72320480D01*
X66293750Y-72343379D01*
X66299108Y-72350361D01*
X66299500Y-72353338D01*
X66299500Y-74662185D01*
X66296132Y-74670317D01*
X65858072Y-75108376D01*
X65849940Y-75111744D01*
X65846964Y-75111352D01*
X65802727Y-75099500D01*
X65697273Y-75099500D01*
X65595418Y-75126791D01*
X65595408Y-75126795D01*
X65504087Y-75179519D01*
X65429519Y-75254087D01*
X65376795Y-75345408D01*
X65376791Y-75345418D01*
X65349500Y-75447273D01*
X65106988Y-75447273D01*
X65887364Y-74666897D01*
X65925500Y-74574828D01*
X65925500Y-74475172D01*
X65925500Y-73545657D01*
X65928868Y-73537525D01*
X65956929Y-73509464D01*
X65995480Y-73470913D01*
X66048207Y-73379587D01*
X66075500Y-73277727D01*
X66075500Y-73172273D01*
X66048207Y-73070413D01*
X65995480Y-72979087D01*
X65920913Y-72904520D01*
X65920912Y-72904519D01*
X65829591Y-72851795D01*
X65829589Y-72851794D01*
X65829587Y-72851793D01*
X65829583Y-72851792D01*
X65829581Y-72851791D01*
X65727727Y-72824500D01*
X65622273Y-72824500D01*
X65520418Y-72851791D01*
X65520408Y-72851795D01*
X65429084Y-72904521D01*
X65411589Y-72922015D01*
X65403457Y-72925383D01*
X65395326Y-72922014D01*
X65392350Y-72916859D01*
X65389060Y-72904581D01*
X65373207Y-72845413D01*
X65320480Y-72754087D01*
X65245913Y-72679520D01*
X65245912Y-72679519D01*
X65154591Y-72626795D01*
X65154589Y-72626794D01*
X65154587Y-72626793D01*
X65154583Y-72626792D01*
X65154581Y-72626791D01*
X65052727Y-72599500D01*
X64947273Y-72599500D01*
X64845418Y-72626791D01*
X64845408Y-72626795D01*
X64754087Y-72679519D01*
X64687475Y-72746132D01*
X64679343Y-72749500D01*
X60883525Y-72749500D01*
X60875393Y-72746132D01*
X60217898Y-72088637D01*
X60217897Y-72088636D01*
X60125828Y-72050500D01*
X60125826Y-72050500D01*
X58912000Y-72050500D01*
X58903868Y-72047132D01*
X58900500Y-72039000D01*
X58900500Y-71947273D01*
X58873208Y-71845418D01*
X58873207Y-71845413D01*
X58820480Y-71754087D01*
X58745913Y-71679520D01*
X58745912Y-71679519D01*
X58654591Y-71626795D01*
X58654589Y-71626794D01*
X58654587Y-71626793D01*
X58654583Y-71626792D01*
X58654581Y-71626791D01*
X58552727Y-71599500D01*
X58447273Y-71599500D01*
X58345418Y-71626791D01*
X58345408Y-71626795D01*
X58254087Y-71679519D01*
X58179519Y-71754087D01*
X58126795Y-71845408D01*
X58126791Y-71845418D01*
X58099500Y-71947273D01*
X58099500Y-72052726D01*
X58126791Y-72154581D01*
X58126795Y-72154591D01*
X58173776Y-72235965D01*
X58179520Y-72245913D01*
X58254087Y-72320480D01*
X58345413Y-72373207D01*
X58447273Y-72400500D01*
X58541475Y-72400500D01*
X58549607Y-72403868D01*
X58659103Y-72513364D01*
X58751172Y-72551500D01*
X58850827Y-72551500D01*
X59967475Y-72551500D01*
X59975607Y-72554868D01*
X60633103Y-73212364D01*
X60725172Y-73250500D01*
X60824827Y-73250500D01*
X64679343Y-73250500D01*
X64687475Y-73253868D01*
X64754087Y-73320480D01*
X64845413Y-73373207D01*
X64947273Y-73400500D01*
X65052727Y-73400500D01*
X65154587Y-73373207D01*
X65245913Y-73320480D01*
X65263408Y-73302983D01*
X65271539Y-73299615D01*
X65279671Y-73302983D01*
X65282648Y-73308139D01*
X65301792Y-73379585D01*
X65354519Y-73470912D01*
X65421132Y-73537525D01*
X65424500Y-73545657D01*
X65424500Y-74416475D01*
X65421132Y-74424607D01*
X63598607Y-76247132D01*
X63590475Y-76250500D01*
X56709525Y-76250500D01*
X56701393Y-76247132D01*
X55151534Y-74697273D01*
X59349500Y-74697273D01*
X59349500Y-74802726D01*
X59376791Y-74904581D01*
X59376795Y-74904591D01*
X59406620Y-74956250D01*
X59429520Y-74995913D01*
X59504087Y-75070480D01*
X59595413Y-75123207D01*
X59697273Y-75150500D01*
X59802727Y-75150500D01*
X59904587Y-75123207D01*
X59995913Y-75070480D01*
X60070480Y-74995913D01*
X60093379Y-74956249D01*
X60100361Y-74950892D01*
X60103338Y-74950500D01*
X63789880Y-74950500D01*
X63789882Y-74950500D01*
X63863574Y-74919976D01*
X63891926Y-74891622D01*
X63900058Y-74888254D01*
X63903031Y-74888645D01*
X63947273Y-74900500D01*
X64052727Y-74900500D01*
X64154587Y-74873207D01*
X64245913Y-74820480D01*
X64320480Y-74745913D01*
X64373207Y-74654587D01*
X64400500Y-74552727D01*
X64400500Y-74447273D01*
X64373207Y-74345413D01*
X64320480Y-74254087D01*
X64245913Y-74179520D01*
X64245912Y-74179519D01*
X64154591Y-74126795D01*
X64154589Y-74126794D01*
X64154587Y-74126793D01*
X64154583Y-74126792D01*
X64154581Y-74126791D01*
X64052727Y-74099500D01*
X63947273Y-74099500D01*
X63845418Y-74126791D01*
X63845408Y-74126795D01*
X63754087Y-74179519D01*
X63679519Y-74254087D01*
X63626795Y-74345408D01*
X63626791Y-74345418D01*
X63599500Y-74447273D01*
X63599500Y-74538000D01*
X63596132Y-74546132D01*
X63588000Y-74549500D01*
X60103338Y-74549500D01*
X60095206Y-74546132D01*
X60093379Y-74543750D01*
X60090059Y-74538000D01*
X60070480Y-74504087D01*
X59995913Y-74429520D01*
X59995912Y-74429519D01*
X59904591Y-74376795D01*
X59904589Y-74376794D01*
X59904587Y-74376793D01*
X59904583Y-74376792D01*
X59904581Y-74376791D01*
X59802727Y-74349500D01*
X59697273Y-74349500D01*
X59595418Y-74376791D01*
X59595408Y-74376795D01*
X59504087Y-74429519D01*
X59429519Y-74504087D01*
X59376795Y-74595408D01*
X59376791Y-74595418D01*
X59349500Y-74697273D01*
X55151534Y-74697273D01*
X55003868Y-74549607D01*
X55000500Y-74541475D01*
X55000500Y-74447273D01*
X54982346Y-74379520D01*
X54973207Y-74345413D01*
X54920480Y-74254087D01*
X54845913Y-74179520D01*
X54845912Y-74179519D01*
X54754591Y-74126795D01*
X54754589Y-74126794D01*
X54754587Y-74126793D01*
X54754583Y-74126792D01*
X54754581Y-74126791D01*
X54652727Y-74099500D01*
X54547273Y-74099500D01*
X54445418Y-74126791D01*
X54445408Y-74126795D01*
X54354087Y-74179519D01*
X54279519Y-74254087D01*
X54226795Y-74345408D01*
X54226791Y-74345418D01*
X54199500Y-74447273D01*
X53688666Y-74447273D01*
X53620913Y-74379520D01*
X53620912Y-74379519D01*
X53529591Y-74326795D01*
X53529589Y-74326794D01*
X53529587Y-74326793D01*
X53529583Y-74326792D01*
X53529581Y-74326791D01*
X53427727Y-74299500D01*
X53322273Y-74299500D01*
X53220418Y-74326791D01*
X53220408Y-74326795D01*
X53129087Y-74379519D01*
X53054519Y-74454087D01*
X53001795Y-74545408D01*
X53001791Y-74545418D01*
X52974500Y-74647273D01*
X49500500Y-74647273D01*
X49500500Y-71986384D01*
X53799500Y-71986384D01*
X53799500Y-72173615D01*
X53836025Y-72357245D01*
X53836026Y-72357250D01*
X53865962Y-72429520D01*
X53900691Y-72513364D01*
X53907679Y-72530233D01*
X54011695Y-72685904D01*
X54011698Y-72685908D01*
X54144092Y-72818302D01*
X54299769Y-72922322D01*
X54472749Y-72993973D01*
X54656384Y-73030500D01*
X54656385Y-73030500D01*
X54843615Y-73030500D01*
X54843616Y-73030500D01*
X55027251Y-72993973D01*
X55200231Y-72922322D01*
X55355908Y-72818302D01*
X55488302Y-72685908D01*
X55592322Y-72530231D01*
X55663973Y-72357251D01*
X55700500Y-72173616D01*
X55700500Y-71986384D01*
X55663973Y-71802749D01*
X55592322Y-71629769D01*
X55488302Y-71474092D01*
X55355908Y-71341698D01*
X55297584Y-71302727D01*
X55200233Y-71237679D01*
X55027250Y-71166026D01*
X55027245Y-71166025D01*
X54875761Y-71135894D01*
X54843616Y-71129500D01*
X54656384Y-71129500D01*
X54626056Y-71135532D01*
X54472754Y-71166025D01*
X54472749Y-71166026D01*
X54299766Y-71237679D01*
X54144095Y-71341695D01*
X54011695Y-71474095D01*
X53907679Y-71629766D01*
X53836026Y-71802749D01*
X53836025Y-71802754D01*
X53799500Y-71986384D01*
X49500500Y-71986384D01*
X49500500Y-70664880D01*
X58924499Y-70664880D01*
X58924500Y-70664882D01*
X58955024Y-70738574D01*
X60386426Y-72169976D01*
X60460118Y-72200500D01*
X60460119Y-72200500D01*
X65289880Y-72200500D01*
X65289882Y-72200500D01*
X65363574Y-72169976D01*
X67829682Y-69703868D01*
X67837814Y-69700500D01*
X69912186Y-69700500D01*
X69920318Y-69703868D01*
X70046132Y-69829681D01*
X70049500Y-69837813D01*
X70049500Y-88039880D01*
X70049499Y-88039880D01*
X70049500Y-88039882D01*
X70080024Y-88113574D01*
X70136426Y-88169976D01*
X70210118Y-88200500D01*
X70210119Y-88200500D01*
X90289880Y-88200500D01*
X90289882Y-88200500D01*
X90363574Y-88169976D01*
X96141927Y-82391621D01*
X96150058Y-82388254D01*
X96153031Y-82388645D01*
X96197273Y-82400500D01*
X96302727Y-82400500D01*
X96404587Y-82373207D01*
X96495913Y-82320480D01*
X96570480Y-82245913D01*
X96623207Y-82154587D01*
X96650500Y-82052727D01*
X96650500Y-81947273D01*
X96623207Y-81845413D01*
X96570480Y-81754087D01*
X96495913Y-81679520D01*
X96495912Y-81679519D01*
X96404591Y-81626795D01*
X96404589Y-81626794D01*
X96404587Y-81626793D01*
X96404583Y-81626792D01*
X96404581Y-81626791D01*
X96302727Y-81599500D01*
X96197273Y-81599500D01*
X96095418Y-81626791D01*
X96095408Y-81626795D01*
X96004087Y-81679519D01*
X95929519Y-81754087D01*
X95876795Y-81845408D01*
X95876791Y-81845418D01*
X95849500Y-81947273D01*
X95849500Y-82052726D01*
X95861352Y-82096964D01*
X95860203Y-82105690D01*
X95858376Y-82108072D01*
X90170318Y-87796132D01*
X90162186Y-87799500D01*
X70462000Y-87799500D01*
X70453868Y-87796132D01*
X70450500Y-87788000D01*
X70450500Y-85421310D01*
X72239500Y-85421310D01*
X72239500Y-85598689D01*
X72274105Y-85772662D01*
X72274105Y-85772665D01*
X72341988Y-85936549D01*
X72440533Y-86084031D01*
X72440536Y-86084035D01*
X72565965Y-86209464D01*
X72713453Y-86308013D01*
X72877334Y-86375894D01*
X73051309Y-86410500D01*
X73051311Y-86410500D01*
X73228689Y-86410500D01*
X73228691Y-86410500D01*
X73402666Y-86375894D01*
X73566547Y-86308013D01*
X73714035Y-86209464D01*
X73839464Y-86084035D01*
X73938013Y-85936547D01*
X74005894Y-85772666D01*
X74040500Y-85598691D01*
X74040500Y-85421309D01*
X74005894Y-85247334D01*
X73938013Y-85083453D01*
X73839464Y-84935965D01*
X73714035Y-84810536D01*
X73714031Y-84810533D01*
X73566549Y-84711988D01*
X73402664Y-84644105D01*
X73297901Y-84623266D01*
X73228691Y-84609500D01*
X73051309Y-84609500D01*
X72964913Y-84626685D01*
X72877337Y-84644105D01*
X72877334Y-84644105D01*
X72713450Y-84711988D01*
X72565968Y-84810533D01*
X72440533Y-84935968D01*
X72341988Y-85083450D01*
X72274105Y-85247334D01*
X72274105Y-85247337D01*
X72239500Y-85421310D01*
X70450500Y-85421310D01*
X70450500Y-82881310D01*
X72239500Y-82881310D01*
X72239500Y-83058689D01*
X72274105Y-83232662D01*
X72274105Y-83232665D01*
X72326609Y-83359421D01*
X72341987Y-83396547D01*
X72440536Y-83544035D01*
X72565965Y-83669464D01*
X72713453Y-83768013D01*
X72877334Y-83835894D01*
X73051309Y-83870500D01*
X73051311Y-83870500D01*
X73228689Y-83870500D01*
X73228691Y-83870500D01*
X73402666Y-83835894D01*
X73566547Y-83768013D01*
X73714035Y-83669464D01*
X73839464Y-83544035D01*
X73938013Y-83396547D01*
X74005894Y-83232666D01*
X74040500Y-83058691D01*
X74040500Y-82881309D01*
X74005894Y-82707334D01*
X73938013Y-82543453D01*
X73839464Y-82395965D01*
X73714035Y-82270536D01*
X73714031Y-82270533D01*
X73566549Y-82171988D01*
X73402664Y-82104105D01*
X73297901Y-82083266D01*
X73228691Y-82069500D01*
X73051309Y-82069500D01*
X72964913Y-82086685D01*
X72877337Y-82104105D01*
X72877334Y-82104105D01*
X72713450Y-82171988D01*
X72565968Y-82270533D01*
X72440533Y-82395968D01*
X72341988Y-82543450D01*
X72274105Y-82707334D01*
X72274105Y-82707337D01*
X72239500Y-82881310D01*
X70450500Y-82881310D01*
X70450500Y-80341310D01*
X72239500Y-80341310D01*
X72239500Y-80518689D01*
X72274105Y-80692662D01*
X72274105Y-80692665D01*
X72341988Y-80856549D01*
X72440533Y-81004031D01*
X72440536Y-81004035D01*
X72565965Y-81129464D01*
X72713453Y-81228013D01*
X72877334Y-81295894D01*
X73051309Y-81330500D01*
X73051311Y-81330500D01*
X73228689Y-81330500D01*
X73228691Y-81330500D01*
X73402666Y-81295894D01*
X73566547Y-81228013D01*
X73714035Y-81129464D01*
X73839464Y-81004035D01*
X73877391Y-80947273D01*
X84599500Y-80947273D01*
X84599500Y-81052726D01*
X84626791Y-81154581D01*
X84626795Y-81154591D01*
X84651437Y-81197273D01*
X84679520Y-81245913D01*
X84754087Y-81320480D01*
X84845413Y-81373207D01*
X84947273Y-81400500D01*
X84988000Y-81400500D01*
X84996132Y-81403868D01*
X84999500Y-81412000D01*
X84999500Y-86179343D01*
X84996132Y-86187475D01*
X84929519Y-86254087D01*
X84876795Y-86345408D01*
X84876791Y-86345418D01*
X84849500Y-86447273D01*
X84849500Y-86552726D01*
X84876423Y-86653209D01*
X84876793Y-86654587D01*
X84929520Y-86745913D01*
X85004087Y-86820480D01*
X85095413Y-86873207D01*
X85197273Y-86900500D01*
X85302727Y-86900500D01*
X85404587Y-86873207D01*
X85495913Y-86820480D01*
X85570480Y-86745913D01*
X85623207Y-86654587D01*
X85650500Y-86552727D01*
X85650500Y-86447273D01*
X85623207Y-86345413D01*
X85570480Y-86254087D01*
X85503868Y-86187475D01*
X85500500Y-86179343D01*
X85500500Y-85421310D01*
X87479500Y-85421310D01*
X87479500Y-85598689D01*
X87514105Y-85772662D01*
X87514105Y-85772665D01*
X87581988Y-85936549D01*
X87680533Y-86084031D01*
X87680536Y-86084035D01*
X87805965Y-86209464D01*
X87953453Y-86308013D01*
X88117334Y-86375894D01*
X88291309Y-86410500D01*
X88291311Y-86410500D01*
X88468689Y-86410500D01*
X88468691Y-86410500D01*
X88642666Y-86375894D01*
X88806547Y-86308013D01*
X88954035Y-86209464D01*
X89079464Y-86084035D01*
X89178013Y-85936547D01*
X89245894Y-85772666D01*
X89280500Y-85598691D01*
X89280500Y-85421309D01*
X89245894Y-85247334D01*
X89178013Y-85083453D01*
X89079464Y-84935965D01*
X88954035Y-84810536D01*
X88954031Y-84810533D01*
X88806549Y-84711988D01*
X88642664Y-84644105D01*
X88537901Y-84623266D01*
X88468691Y-84609500D01*
X88291309Y-84609500D01*
X88204913Y-84626685D01*
X88117337Y-84644105D01*
X88117334Y-84644105D01*
X87953450Y-84711988D01*
X87805968Y-84810533D01*
X87680533Y-84935968D01*
X87581988Y-85083450D01*
X87514105Y-85247334D01*
X87514105Y-85247337D01*
X87479500Y-85421310D01*
X85500500Y-85421310D01*
X85500500Y-82881310D01*
X87479500Y-82881310D01*
X87479500Y-83058689D01*
X87514105Y-83232662D01*
X87514105Y-83232665D01*
X87566609Y-83359421D01*
X87581987Y-83396547D01*
X87680536Y-83544035D01*
X87805965Y-83669464D01*
X87953453Y-83768013D01*
X88117334Y-83835894D01*
X88291309Y-83870500D01*
X88291311Y-83870500D01*
X88468689Y-83870500D01*
X88468691Y-83870500D01*
X88642666Y-83835894D01*
X88806547Y-83768013D01*
X88954035Y-83669464D01*
X89079464Y-83544035D01*
X89178013Y-83396547D01*
X89245894Y-83232666D01*
X89280500Y-83058691D01*
X89280500Y-82881309D01*
X89245894Y-82707334D01*
X89178013Y-82543453D01*
X89079464Y-82395965D01*
X88954035Y-82270536D01*
X88954031Y-82270533D01*
X88806549Y-82171988D01*
X88642664Y-82104105D01*
X88537901Y-82083266D01*
X88468691Y-82069500D01*
X88291309Y-82069500D01*
X88204913Y-82086685D01*
X88117337Y-82104105D01*
X88117334Y-82104105D01*
X87953450Y-82171988D01*
X87805968Y-82270533D01*
X87680533Y-82395968D01*
X87581988Y-82543450D01*
X87514105Y-82707334D01*
X87514105Y-82707337D01*
X87479500Y-82881310D01*
X85500500Y-82881310D01*
X85500500Y-81200173D01*
X85499299Y-81197273D01*
X85462364Y-81108103D01*
X85403868Y-81049607D01*
X85400500Y-81041475D01*
X85400500Y-80947273D01*
X85395743Y-80929519D01*
X85373207Y-80845413D01*
X85320480Y-80754087D01*
X85245913Y-80679520D01*
X85245912Y-80679519D01*
X85154591Y-80626795D01*
X85154589Y-80626794D01*
X85154587Y-80626793D01*
X85154583Y-80626792D01*
X85154581Y-80626791D01*
X85052727Y-80599500D01*
X84947273Y-80599500D01*
X84845418Y-80626791D01*
X84845408Y-80626795D01*
X84754087Y-80679519D01*
X84679519Y-80754087D01*
X84626795Y-80845408D01*
X84626791Y-80845418D01*
X84599500Y-80947273D01*
X73877391Y-80947273D01*
X73938013Y-80856547D01*
X74005894Y-80692666D01*
X74040500Y-80518691D01*
X74040500Y-80341310D01*
X87479500Y-80341310D01*
X87479500Y-80518689D01*
X87514105Y-80692662D01*
X87514105Y-80692665D01*
X87581988Y-80856549D01*
X87680533Y-81004031D01*
X87680536Y-81004035D01*
X87805965Y-81129464D01*
X87953453Y-81228013D01*
X88117334Y-81295894D01*
X88291309Y-81330500D01*
X88291311Y-81330500D01*
X88468689Y-81330500D01*
X88468691Y-81330500D01*
X88642666Y-81295894D01*
X88806547Y-81228013D01*
X88954035Y-81129464D01*
X89079464Y-81004035D01*
X89178013Y-80856547D01*
X89245894Y-80692666D01*
X89280500Y-80518691D01*
X89280500Y-80341309D01*
X89245894Y-80167334D01*
X89178013Y-80003453D01*
X89079464Y-79855965D01*
X88954035Y-79730536D01*
X88954031Y-79730533D01*
X88806549Y-79631988D01*
X88642664Y-79564105D01*
X88537901Y-79543266D01*
X88468691Y-79529500D01*
X88291309Y-79529500D01*
X88204913Y-79546685D01*
X88117337Y-79564105D01*
X88117334Y-79564105D01*
X87953450Y-79631988D01*
X87805968Y-79730533D01*
X87680533Y-79855968D01*
X87581988Y-80003450D01*
X87514105Y-80167334D01*
X87514105Y-80167337D01*
X87479500Y-80341310D01*
X74040500Y-80341310D01*
X74040500Y-80341309D01*
X74005894Y-80167334D01*
X73938013Y-80003453D01*
X73839464Y-79855965D01*
X73714035Y-79730536D01*
X73714031Y-79730533D01*
X73566549Y-79631988D01*
X73402664Y-79564105D01*
X73297901Y-79543266D01*
X73228691Y-79529500D01*
X73051309Y-79529500D01*
X72964913Y-79546685D01*
X72877337Y-79564105D01*
X72877334Y-79564105D01*
X72713450Y-79631988D01*
X72565968Y-79730533D01*
X72440533Y-79855968D01*
X72341988Y-80003450D01*
X72274105Y-80167334D01*
X72274105Y-80167337D01*
X72239500Y-80341310D01*
X70450500Y-80341310D01*
X70450500Y-77801310D01*
X72239500Y-77801310D01*
X72239500Y-77978689D01*
X72274105Y-78152662D01*
X72274105Y-78152665D01*
X72281664Y-78170913D01*
X72341987Y-78316547D01*
X72440536Y-78464035D01*
X72565965Y-78589464D01*
X72713453Y-78688013D01*
X72877334Y-78755894D01*
X73051309Y-78790500D01*
X73051311Y-78790500D01*
X73228689Y-78790500D01*
X73228691Y-78790500D01*
X73402666Y-78755894D01*
X73566547Y-78688013D01*
X73714035Y-78589464D01*
X73839464Y-78464035D01*
X73938013Y-78316547D01*
X74005894Y-78152666D01*
X74040500Y-77978691D01*
X74040500Y-77801310D01*
X87479500Y-77801310D01*
X87479500Y-77978689D01*
X87514105Y-78152662D01*
X87514105Y-78152665D01*
X87521664Y-78170913D01*
X87581987Y-78316547D01*
X87680536Y-78464035D01*
X87805965Y-78589464D01*
X87953453Y-78688013D01*
X88117334Y-78755894D01*
X88291309Y-78790500D01*
X88291311Y-78790500D01*
X88468689Y-78790500D01*
X88468691Y-78790500D01*
X88642666Y-78755894D01*
X88806547Y-78688013D01*
X88954035Y-78589464D01*
X89079464Y-78464035D01*
X89178013Y-78316547D01*
X89245894Y-78152666D01*
X89280500Y-77978691D01*
X89280500Y-77801309D01*
X89245894Y-77627334D01*
X89178013Y-77463453D01*
X89079464Y-77315965D01*
X88954035Y-77190536D01*
X88949454Y-77187475D01*
X88806549Y-77091988D01*
X88642664Y-77024105D01*
X88537901Y-77003266D01*
X88468691Y-76989500D01*
X88291309Y-76989500D01*
X88204913Y-77006685D01*
X88117337Y-77024105D01*
X88117334Y-77024105D01*
X87953450Y-77091988D01*
X87805968Y-77190533D01*
X87680533Y-77315968D01*
X87581988Y-77463450D01*
X87514105Y-77627334D01*
X87514105Y-77627337D01*
X87479500Y-77801310D01*
X74040500Y-77801310D01*
X74040500Y-77801309D01*
X74005894Y-77627334D01*
X73938013Y-77463453D01*
X73839464Y-77315965D01*
X73714035Y-77190536D01*
X73709454Y-77187475D01*
X73566549Y-77091988D01*
X73402664Y-77024105D01*
X73297901Y-77003266D01*
X73228691Y-76989500D01*
X73051309Y-76989500D01*
X72964913Y-77006685D01*
X72877337Y-77024105D01*
X72877334Y-77024105D01*
X72713450Y-77091988D01*
X72565968Y-77190533D01*
X72440533Y-77315968D01*
X72341988Y-77463450D01*
X72274105Y-77627334D01*
X72274105Y-77627337D01*
X72239500Y-77801310D01*
X70450500Y-77801310D01*
X70450500Y-75261310D01*
X72239500Y-75261310D01*
X72239500Y-75438689D01*
X72274105Y-75612662D01*
X72274105Y-75612665D01*
X72341988Y-75776549D01*
X72406574Y-75873208D01*
X72440536Y-75924035D01*
X72565965Y-76049464D01*
X72713453Y-76148013D01*
X72877334Y-76215894D01*
X73051309Y-76250500D01*
X73051311Y-76250500D01*
X73228689Y-76250500D01*
X73228691Y-76250500D01*
X73402666Y-76215894D01*
X73566547Y-76148013D01*
X73714035Y-76049464D01*
X73839464Y-75924035D01*
X73938013Y-75776547D01*
X74005894Y-75612666D01*
X74040500Y-75438691D01*
X74040500Y-75261310D01*
X87479500Y-75261310D01*
X87479500Y-75438689D01*
X87514105Y-75612662D01*
X87514105Y-75612665D01*
X87581988Y-75776549D01*
X87646574Y-75873208D01*
X87680536Y-75924035D01*
X87805965Y-76049464D01*
X87953453Y-76148013D01*
X88117334Y-76215894D01*
X88291309Y-76250500D01*
X88291311Y-76250500D01*
X88468689Y-76250500D01*
X88468691Y-76250500D01*
X88642666Y-76215894D01*
X88806547Y-76148013D01*
X88954035Y-76049464D01*
X89079464Y-75924035D01*
X89178013Y-75776547D01*
X89245894Y-75612666D01*
X89280500Y-75438691D01*
X89280500Y-75261309D01*
X89245894Y-75087334D01*
X89178013Y-74923453D01*
X89079464Y-74775965D01*
X88954035Y-74650536D01*
X88871546Y-74595418D01*
X88806549Y-74551988D01*
X88800542Y-74549500D01*
X88642666Y-74484106D01*
X88642664Y-74484105D01*
X88537901Y-74463266D01*
X88468691Y-74449500D01*
X88291309Y-74449500D01*
X88204913Y-74466685D01*
X88117337Y-74484105D01*
X88117334Y-74484105D01*
X87953450Y-74551988D01*
X87805968Y-74650533D01*
X87680533Y-74775968D01*
X87581988Y-74923450D01*
X87514105Y-75087334D01*
X87514105Y-75087337D01*
X87479500Y-75261310D01*
X74040500Y-75261310D01*
X74040500Y-75261309D01*
X74005894Y-75087334D01*
X73938013Y-74923453D01*
X73839464Y-74775965D01*
X73714035Y-74650536D01*
X73631546Y-74595418D01*
X73566549Y-74551988D01*
X73560542Y-74549500D01*
X73402666Y-74484106D01*
X73402664Y-74484105D01*
X73297901Y-74463266D01*
X73228691Y-74449500D01*
X73051309Y-74449500D01*
X72964913Y-74466685D01*
X72877337Y-74484105D01*
X72877334Y-74484105D01*
X72713450Y-74551988D01*
X72565968Y-74650533D01*
X72440533Y-74775968D01*
X72341988Y-74923450D01*
X72274105Y-75087334D01*
X72274105Y-75087337D01*
X72239500Y-75261310D01*
X70450500Y-75261310D01*
X70450500Y-72721309D01*
X72239500Y-72721309D01*
X72239500Y-72898691D01*
X72246941Y-72936100D01*
X72274105Y-73072662D01*
X72274105Y-73072665D01*
X72341988Y-73236549D01*
X72440533Y-73384031D01*
X72440536Y-73384035D01*
X72565965Y-73509464D01*
X72713453Y-73608013D01*
X72877334Y-73675894D01*
X73051309Y-73710500D01*
X73051311Y-73710500D01*
X73228689Y-73710500D01*
X73228691Y-73710500D01*
X73402666Y-73675894D01*
X73566547Y-73608013D01*
X73714035Y-73509464D01*
X73839464Y-73384035D01*
X73938013Y-73236547D01*
X74005894Y-73072666D01*
X74040500Y-72898691D01*
X74040500Y-72721309D01*
X74035719Y-72697273D01*
X75349500Y-72697273D01*
X75349500Y-72802726D01*
X75376791Y-72904581D01*
X75376795Y-72904591D01*
X75428400Y-72993974D01*
X75429520Y-72995913D01*
X75504087Y-73070480D01*
X75595413Y-73123207D01*
X75697273Y-73150500D01*
X75802727Y-73150500D01*
X75904587Y-73123207D01*
X75995913Y-73070480D01*
X76070480Y-72995913D01*
X76123207Y-72904587D01*
X76150500Y-72802727D01*
X76150500Y-72721309D01*
X87479500Y-72721309D01*
X87479500Y-72898691D01*
X87486941Y-72936100D01*
X87514105Y-73072662D01*
X87514105Y-73072665D01*
X87581988Y-73236549D01*
X87680533Y-73384031D01*
X87680536Y-73384035D01*
X87805965Y-73509464D01*
X87953453Y-73608013D01*
X88117334Y-73675894D01*
X88291309Y-73710500D01*
X88291311Y-73710500D01*
X88468689Y-73710500D01*
X88468691Y-73710500D01*
X88642666Y-73675894D01*
X88806547Y-73608013D01*
X88954035Y-73509464D01*
X89079464Y-73384035D01*
X89178013Y-73236547D01*
X89245894Y-73072666D01*
X89280500Y-72898691D01*
X89280500Y-72721309D01*
X89245894Y-72547334D01*
X89178013Y-72383453D01*
X89079464Y-72235965D01*
X88954035Y-72110536D01*
X88954031Y-72110533D01*
X88806549Y-72011988D01*
X88642664Y-71944105D01*
X88537901Y-71923266D01*
X88468691Y-71909500D01*
X88291309Y-71909500D01*
X88204913Y-71926685D01*
X88117337Y-71944105D01*
X88117334Y-71944105D01*
X87953450Y-72011988D01*
X87805968Y-72110533D01*
X87680533Y-72235968D01*
X87581988Y-72383450D01*
X87514105Y-72547334D01*
X87514105Y-72547337D01*
X87494356Y-72646621D01*
X87479500Y-72721309D01*
X76150500Y-72721309D01*
X76150500Y-72697273D01*
X76138646Y-72653033D01*
X76139795Y-72644308D01*
X76141618Y-72641930D01*
X78602239Y-70181309D01*
X87479500Y-70181309D01*
X87479500Y-70358691D01*
X87498453Y-70453973D01*
X87514105Y-70532662D01*
X87514105Y-70532665D01*
X87581988Y-70696549D01*
X87680533Y-70844031D01*
X87680536Y-70844035D01*
X87805965Y-70969464D01*
X87953453Y-71068013D01*
X88117334Y-71135894D01*
X88291309Y-71170500D01*
X88291311Y-71170500D01*
X88468689Y-71170500D01*
X88468691Y-71170500D01*
X88642666Y-71135894D01*
X88806547Y-71068013D01*
X88954035Y-70969464D01*
X89079464Y-70844035D01*
X89178013Y-70696547D01*
X89245894Y-70532666D01*
X89280500Y-70358691D01*
X89280500Y-70181309D01*
X89245894Y-70007334D01*
X89178013Y-69843453D01*
X89079464Y-69695965D01*
X88954035Y-69570536D01*
X88854588Y-69504087D01*
X88806549Y-69471988D01*
X88642664Y-69404105D01*
X88537901Y-69383266D01*
X88468691Y-69369500D01*
X88291309Y-69369500D01*
X88204913Y-69386685D01*
X88117337Y-69404105D01*
X88117334Y-69404105D01*
X87953450Y-69471988D01*
X87805968Y-69570533D01*
X87680533Y-69695968D01*
X87581988Y-69843450D01*
X87514105Y-70007334D01*
X87514105Y-70007337D01*
X87494542Y-70105690D01*
X87479500Y-70181309D01*
X78602239Y-70181309D01*
X81142240Y-67641309D01*
X87479500Y-67641309D01*
X87479500Y-67818691D01*
X87498453Y-67913973D01*
X87514105Y-67992662D01*
X87514105Y-67992665D01*
X87581988Y-68156549D01*
X87679661Y-68302726D01*
X87680536Y-68304035D01*
X87805965Y-68429464D01*
X87953453Y-68528013D01*
X88117334Y-68595894D01*
X88291309Y-68630500D01*
X88291311Y-68630500D01*
X88468689Y-68630500D01*
X88468691Y-68630500D01*
X88642666Y-68595894D01*
X88806547Y-68528013D01*
X88954035Y-68429464D01*
X89079464Y-68304035D01*
X89178013Y-68156547D01*
X89245894Y-67992666D01*
X89280500Y-67818691D01*
X89280500Y-67641309D01*
X89245894Y-67467334D01*
X89178013Y-67303453D01*
X89107065Y-67197273D01*
X90849500Y-67197273D01*
X90849500Y-67302726D01*
X90876791Y-67404581D01*
X90876795Y-67404591D01*
X90929519Y-67495912D01*
X90996132Y-67562525D01*
X90999500Y-67570657D01*
X90999500Y-84429343D01*
X90996132Y-84437475D01*
X90929519Y-84504087D01*
X90876795Y-84595408D01*
X90876791Y-84595418D01*
X90873018Y-84609500D01*
X90849500Y-84697273D01*
X90849500Y-84802727D01*
X90860575Y-84844060D01*
X90876791Y-84904581D01*
X90876795Y-84904591D01*
X90894910Y-84935968D01*
X90929520Y-84995913D01*
X91004087Y-85070480D01*
X91095413Y-85123207D01*
X91197273Y-85150500D01*
X91302727Y-85150500D01*
X91404587Y-85123207D01*
X91495913Y-85070480D01*
X91570480Y-84995913D01*
X91623207Y-84904587D01*
X91650500Y-84802727D01*
X91650500Y-84697273D01*
X91623207Y-84595413D01*
X91570480Y-84504087D01*
X91503868Y-84437475D01*
X91500500Y-84429343D01*
X91500500Y-78947273D01*
X92599500Y-78947273D01*
X92599500Y-79052726D01*
X92626791Y-79154581D01*
X92626795Y-79154591D01*
X92679519Y-79245912D01*
X92746132Y-79312525D01*
X92749500Y-79320657D01*
X92749500Y-81179343D01*
X92746132Y-81187475D01*
X92679519Y-81254087D01*
X92626795Y-81345408D01*
X92626791Y-81345418D01*
X92599500Y-81447273D01*
X92599500Y-81552726D01*
X92622829Y-81639795D01*
X92626793Y-81654587D01*
X92679520Y-81745913D01*
X92754087Y-81820480D01*
X92845413Y-81873207D01*
X92947273Y-81900500D01*
X93052727Y-81900500D01*
X93154587Y-81873207D01*
X93245913Y-81820480D01*
X93320480Y-81745913D01*
X93373207Y-81654587D01*
X93400500Y-81552727D01*
X93400500Y-81447273D01*
X93373207Y-81345413D01*
X93320480Y-81254087D01*
X93253868Y-81187475D01*
X93250500Y-81179343D01*
X93250500Y-79320657D01*
X93253868Y-79312525D01*
X93320480Y-79245913D01*
X93373207Y-79154587D01*
X93400500Y-79052727D01*
X93400500Y-78947273D01*
X93373207Y-78845413D01*
X93320480Y-78754087D01*
X93245913Y-78679520D01*
X93245912Y-78679519D01*
X93154591Y-78626795D01*
X93154589Y-78626794D01*
X93154587Y-78626793D01*
X93154583Y-78626792D01*
X93154581Y-78626791D01*
X93052727Y-78599500D01*
X92947273Y-78599500D01*
X92845418Y-78626791D01*
X92845408Y-78626795D01*
X92754087Y-78679519D01*
X92679519Y-78754087D01*
X92626795Y-78845408D01*
X92626791Y-78845418D01*
X92599500Y-78947273D01*
X91500500Y-78947273D01*
X91500500Y-77872273D01*
X98149500Y-77872273D01*
X98149500Y-77977727D01*
X98160575Y-78019060D01*
X98176791Y-78079581D01*
X98176795Y-78079591D01*
X98218984Y-78152665D01*
X98229520Y-78170913D01*
X98304087Y-78245480D01*
X98395413Y-78298207D01*
X98497273Y-78325500D01*
X98602727Y-78325500D01*
X98704587Y-78298207D01*
X98795913Y-78245480D01*
X98870480Y-78170913D01*
X98893379Y-78131249D01*
X98900361Y-78125892D01*
X98903338Y-78125500D01*
X99914880Y-78125500D01*
X99914882Y-78125500D01*
X99988574Y-78094976D01*
X101629682Y-76453868D01*
X101637814Y-76450500D01*
X101712186Y-76450500D01*
X101720318Y-76453868D01*
X101933376Y-76666926D01*
X101936744Y-76675058D01*
X101936352Y-76678034D01*
X101924500Y-76722273D01*
X101924500Y-76827726D01*
X101951791Y-76929581D01*
X101951795Y-76929591D01*
X101986383Y-76989500D01*
X102004520Y-77020913D01*
X102079087Y-77095480D01*
X102170413Y-77148207D01*
X102272273Y-77175500D01*
X102377727Y-77175500D01*
X102479587Y-77148207D01*
X102570913Y-77095480D01*
X102645480Y-77020913D01*
X102698207Y-76929587D01*
X102725500Y-76827727D01*
X102725500Y-76722273D01*
X102698207Y-76620413D01*
X102645480Y-76529087D01*
X102570913Y-76454520D01*
X102570912Y-76454519D01*
X102479591Y-76401795D01*
X102479589Y-76401794D01*
X102479587Y-76401793D01*
X102479583Y-76401792D01*
X102479581Y-76401791D01*
X102377727Y-76374500D01*
X102272273Y-76374500D01*
X102228034Y-76386352D01*
X102219308Y-76385203D01*
X102216926Y-76383376D01*
X101913575Y-76080025D01*
X101913574Y-76080024D01*
X101839882Y-76049500D01*
X101589882Y-76049500D01*
X101510118Y-76049500D01*
X101436426Y-76080024D01*
X101436424Y-76080025D01*
X99795318Y-77721132D01*
X99787186Y-77724500D01*
X98903338Y-77724500D01*
X98895206Y-77721132D01*
X98893379Y-77718750D01*
X98870480Y-77679087D01*
X98795912Y-77604519D01*
X98704591Y-77551795D01*
X98704589Y-77551794D01*
X98704587Y-77551793D01*
X98704583Y-77551792D01*
X98704581Y-77551791D01*
X98602727Y-77524500D01*
X98497273Y-77524500D01*
X98395418Y-77551791D01*
X98395408Y-77551795D01*
X98304087Y-77604519D01*
X98229519Y-77679087D01*
X98176795Y-77770408D01*
X98176791Y-77770418D01*
X98149500Y-77872273D01*
X91500500Y-77872273D01*
X91500500Y-67570657D01*
X91503868Y-67562525D01*
X91520261Y-67546132D01*
X91570480Y-67495913D01*
X91623207Y-67404587D01*
X91650500Y-67302727D01*
X91650500Y-67197273D01*
X91623207Y-67095413D01*
X91570480Y-67004087D01*
X91495913Y-66929520D01*
X91495912Y-66929519D01*
X91404591Y-66876795D01*
X91404589Y-66876794D01*
X91404587Y-66876793D01*
X91404583Y-66876792D01*
X91404581Y-66876791D01*
X91302727Y-66849500D01*
X91197273Y-66849500D01*
X91095418Y-66876791D01*
X91095408Y-66876795D01*
X91004087Y-66929519D01*
X90929519Y-67004087D01*
X90876795Y-67095408D01*
X90876791Y-67095418D01*
X90849500Y-67197273D01*
X89107065Y-67197273D01*
X89079466Y-67155968D01*
X89079464Y-67155965D01*
X88954035Y-67030536D01*
X88914452Y-67004087D01*
X88806549Y-66931988D01*
X88800588Y-66929519D01*
X88709830Y-66891926D01*
X88642664Y-66864105D01*
X88537901Y-66843266D01*
X88468691Y-66829500D01*
X88291309Y-66829500D01*
X88211284Y-66845418D01*
X88117337Y-66864105D01*
X88117334Y-66864105D01*
X87953450Y-66931988D01*
X87805968Y-67030533D01*
X87680533Y-67155968D01*
X87581988Y-67303450D01*
X87514105Y-67467334D01*
X87514105Y-67467337D01*
X87479500Y-67641309D01*
X81142240Y-67641309D01*
X82586276Y-66197273D01*
X83849500Y-66197273D01*
X83849500Y-66302726D01*
X83873981Y-66394095D01*
X83876792Y-66404585D01*
X83876795Y-66404591D01*
X83912509Y-66466450D01*
X83929520Y-66495913D01*
X84004087Y-66570480D01*
X84095413Y-66623207D01*
X84197273Y-66650500D01*
X84302727Y-66650500D01*
X84404587Y-66623207D01*
X84495913Y-66570480D01*
X84570480Y-66495913D01*
X84623207Y-66404587D01*
X84624430Y-66400024D01*
X84629788Y-66393041D01*
X84635538Y-66391500D01*
X89853186Y-66391500D01*
X89861318Y-66394868D01*
X90330023Y-66863572D01*
X90330024Y-66863574D01*
X90386426Y-66919976D01*
X90438533Y-66941559D01*
X90460117Y-66950500D01*
X90460118Y-66950500D01*
X90539880Y-66950500D01*
X90539882Y-66950500D01*
X90613574Y-66919976D01*
X92336277Y-65197273D01*
X100349500Y-65197273D01*
X100349500Y-65302726D01*
X100376791Y-65404581D01*
X100376795Y-65404591D01*
X100429519Y-65495912D01*
X100504087Y-65570480D01*
X100543750Y-65593379D01*
X100549108Y-65600361D01*
X100549500Y-65603338D01*
X100549500Y-68039880D01*
X100549499Y-68039880D01*
X100549500Y-68039882D01*
X100580024Y-68113574D01*
X100580025Y-68113575D01*
X100858376Y-68391926D01*
X100861744Y-68400058D01*
X100861352Y-68403034D01*
X100849500Y-68447273D01*
X100849500Y-68552726D01*
X100876791Y-68654581D01*
X100876795Y-68654591D01*
X100906620Y-68706250D01*
X100929520Y-68745913D01*
X101004087Y-68820480D01*
X101095413Y-68873207D01*
X101197273Y-68900500D01*
X101302727Y-68900500D01*
X101404587Y-68873207D01*
X101495913Y-68820480D01*
X101570480Y-68745913D01*
X101578041Y-68732815D01*
X101585023Y-68727458D01*
X101593750Y-68728607D01*
X101599108Y-68735589D01*
X101599500Y-68738566D01*
X101599500Y-68802726D01*
X101626791Y-68904581D01*
X101626795Y-68904591D01*
X101679162Y-68995294D01*
X101679520Y-68995913D01*
X101754087Y-69070480D01*
X101845413Y-69123207D01*
X101947273Y-69150500D01*
X102052727Y-69150500D01*
X102154587Y-69123207D01*
X102245913Y-69070480D01*
X102320480Y-68995913D01*
X102343379Y-68956249D01*
X102350361Y-68950892D01*
X102353338Y-68950500D01*
X106396662Y-68950500D01*
X106404794Y-68953868D01*
X106406619Y-68956248D01*
X106415388Y-68971436D01*
X106429162Y-68995294D01*
X106429520Y-68995913D01*
X106504087Y-69070480D01*
X106595413Y-69123207D01*
X106697273Y-69150500D01*
X106802727Y-69150500D01*
X106904587Y-69123207D01*
X106995913Y-69070480D01*
X107070480Y-68995913D01*
X107123207Y-68904587D01*
X107150500Y-68802727D01*
X107150500Y-68697273D01*
X107123207Y-68595413D01*
X107070480Y-68504087D01*
X106995913Y-68429520D01*
X106995912Y-68429519D01*
X106904591Y-68376795D01*
X106904589Y-68376794D01*
X106904587Y-68376793D01*
X106904583Y-68376792D01*
X106904581Y-68376791D01*
X106802727Y-68349500D01*
X106697273Y-68349500D01*
X106595418Y-68376791D01*
X106595408Y-68376795D01*
X106504087Y-68429519D01*
X106429519Y-68504087D01*
X106406621Y-68543750D01*
X106399639Y-68549108D01*
X106396662Y-68549500D01*
X102353338Y-68549500D01*
X102345206Y-68546132D01*
X102343379Y-68543750D01*
X102334293Y-68528013D01*
X102320480Y-68504087D01*
X102245913Y-68429520D01*
X102245912Y-68429519D01*
X102154591Y-68376795D01*
X102154589Y-68376794D01*
X102154587Y-68376793D01*
X102154583Y-68376792D01*
X102154581Y-68376791D01*
X102052727Y-68349500D01*
X101947273Y-68349500D01*
X101845418Y-68376791D01*
X101845408Y-68376795D01*
X101754087Y-68429519D01*
X101679519Y-68504087D01*
X101671959Y-68517182D01*
X101664976Y-68522540D01*
X101656250Y-68521391D01*
X101650892Y-68514408D01*
X101650500Y-68511432D01*
X101650500Y-68447273D01*
X101645728Y-68429464D01*
X101623207Y-68345413D01*
X101570480Y-68254087D01*
X101495913Y-68179520D01*
X101495912Y-68179519D01*
X101404591Y-68126795D01*
X101404589Y-68126794D01*
X101404587Y-68126793D01*
X101404583Y-68126792D01*
X101404581Y-68126791D01*
X101302727Y-68099500D01*
X101197273Y-68099500D01*
X101153034Y-68111352D01*
X101144308Y-68110203D01*
X101141926Y-68108376D01*
X100953868Y-67920318D01*
X100950500Y-67912186D01*
X100950500Y-65603338D01*
X100953868Y-65595206D01*
X100956250Y-65593379D01*
X100995913Y-65570480D01*
X101070480Y-65495913D01*
X101123207Y-65404587D01*
X101150500Y-65302727D01*
X101150500Y-65197273D01*
X101123207Y-65095413D01*
X101070480Y-65004087D01*
X100995913Y-64929520D01*
X100995912Y-64929519D01*
X100904591Y-64876795D01*
X100904589Y-64876794D01*
X100904587Y-64876793D01*
X100904583Y-64876792D01*
X100904581Y-64876791D01*
X100802727Y-64849500D01*
X100697273Y-64849500D01*
X100595418Y-64876791D01*
X100595408Y-64876795D01*
X100504087Y-64929519D01*
X100429519Y-65004087D01*
X100376795Y-65095408D01*
X100376791Y-65095418D01*
X100349500Y-65197273D01*
X92336277Y-65197273D01*
X94411277Y-63122273D01*
X99074500Y-63122273D01*
X99074500Y-63227727D01*
X99101793Y-63329587D01*
X99154520Y-63420913D01*
X99229087Y-63495480D01*
X99320413Y-63548207D01*
X99422273Y-63575500D01*
X99527727Y-63575500D01*
X99629587Y-63548207D01*
X99720913Y-63495480D01*
X99787525Y-63428868D01*
X99795657Y-63425500D01*
X101791475Y-63425500D01*
X101799607Y-63428868D01*
X101896132Y-63525393D01*
X101899500Y-63533525D01*
X101899500Y-63627727D01*
X101906697Y-63654587D01*
X101926791Y-63729581D01*
X101926795Y-63729591D01*
X101960307Y-63787636D01*
X101979520Y-63820913D01*
X102054087Y-63895480D01*
X102145413Y-63948207D01*
X102247273Y-63975500D01*
X102352727Y-63975500D01*
X102454587Y-63948207D01*
X102545913Y-63895480D01*
X102620480Y-63820913D01*
X102673207Y-63729587D01*
X102700500Y-63627727D01*
X102700500Y-63522273D01*
X102673207Y-63420413D01*
X102620480Y-63329087D01*
X102545913Y-63254520D01*
X102545912Y-63254519D01*
X102454591Y-63201795D01*
X102454589Y-63201794D01*
X102454587Y-63201793D01*
X102454583Y-63201792D01*
X102454581Y-63201791D01*
X102352727Y-63174500D01*
X102258525Y-63174500D01*
X102250393Y-63171132D01*
X102041898Y-62962637D01*
X102041897Y-62962636D01*
X101949828Y-62924500D01*
X101949826Y-62924500D01*
X99795657Y-62924500D01*
X99787525Y-62921132D01*
X99720912Y-62854519D01*
X99629591Y-62801795D01*
X99629589Y-62801794D01*
X99629587Y-62801793D01*
X99629583Y-62801792D01*
X99629581Y-62801791D01*
X99527727Y-62774500D01*
X99422273Y-62774500D01*
X99320418Y-62801791D01*
X99320408Y-62801795D01*
X99229087Y-62854519D01*
X99154519Y-62929087D01*
X99101795Y-63020408D01*
X99101791Y-63020418D01*
X99080602Y-63099500D01*
X99074500Y-63122273D01*
X94411277Y-63122273D01*
X95079682Y-62453868D01*
X95087814Y-62450500D01*
X105396662Y-62450500D01*
X105404794Y-62453868D01*
X105406619Y-62456248D01*
X105429520Y-62495913D01*
X105504087Y-62570480D01*
X105595413Y-62623207D01*
X105697273Y-62650500D01*
X105802727Y-62650500D01*
X105904587Y-62623207D01*
X105995913Y-62570480D01*
X106070480Y-62495913D01*
X106123207Y-62404587D01*
X106150500Y-62302727D01*
X106150500Y-62197273D01*
X106123207Y-62095413D01*
X106070480Y-62004087D01*
X105995913Y-61929520D01*
X105995912Y-61929519D01*
X105904591Y-61876795D01*
X105904589Y-61876794D01*
X105904587Y-61876793D01*
X105904583Y-61876792D01*
X105904581Y-61876791D01*
X105802727Y-61849500D01*
X105697273Y-61849500D01*
X105595418Y-61876791D01*
X105595408Y-61876795D01*
X105504087Y-61929519D01*
X105429519Y-62004087D01*
X105406621Y-62043750D01*
X105399639Y-62049108D01*
X105396662Y-62049500D01*
X95039882Y-62049500D01*
X94960118Y-62049500D01*
X94886426Y-62080024D01*
X94886424Y-62080025D01*
X90508131Y-66458317D01*
X90499999Y-66461685D01*
X90491867Y-66458317D01*
X90054575Y-66021025D01*
X90054574Y-66021024D01*
X89980882Y-65990500D01*
X89980880Y-65990500D01*
X88840735Y-65990500D01*
X88832603Y-65987132D01*
X88829235Y-65979000D01*
X88832603Y-65970868D01*
X88834346Y-65969438D01*
X88894087Y-65929520D01*
X88954035Y-65889464D01*
X89079464Y-65764035D01*
X89178013Y-65616547D01*
X89245894Y-65452666D01*
X89280500Y-65278691D01*
X89280500Y-65101309D01*
X89245894Y-64927334D01*
X89178013Y-64763453D01*
X89079464Y-64615965D01*
X88954035Y-64490536D01*
X88862719Y-64429520D01*
X88806549Y-64391988D01*
X88642664Y-64324105D01*
X88537901Y-64303266D01*
X88468691Y-64289500D01*
X88291309Y-64289500D01*
X88204913Y-64306685D01*
X88117337Y-64324105D01*
X88117334Y-64324105D01*
X87953450Y-64391988D01*
X87805968Y-64490533D01*
X87680533Y-64615968D01*
X87581988Y-64763450D01*
X87514105Y-64927334D01*
X87514105Y-64927337D01*
X87479500Y-65101310D01*
X87479500Y-65278689D01*
X87514105Y-65452662D01*
X87514105Y-65452665D01*
X87581988Y-65616549D01*
X87624064Y-65679520D01*
X87680536Y-65764035D01*
X87805965Y-65889464D01*
X87805968Y-65889466D01*
X87925654Y-65969438D01*
X87930544Y-65976756D01*
X87928827Y-65985389D01*
X87921509Y-65990279D01*
X87919265Y-65990500D01*
X84561657Y-65990500D01*
X84553525Y-65987132D01*
X84495912Y-65929519D01*
X84404591Y-65876795D01*
X84404589Y-65876794D01*
X84404587Y-65876793D01*
X84404583Y-65876792D01*
X84404581Y-65876791D01*
X84302727Y-65849500D01*
X84197273Y-65849500D01*
X84095418Y-65876791D01*
X84095408Y-65876795D01*
X84004087Y-65929519D01*
X83929519Y-66004087D01*
X83876795Y-66095408D01*
X83876791Y-66095418D01*
X83849500Y-66197273D01*
X82586276Y-66197273D01*
X84928682Y-63854868D01*
X84936814Y-63851500D01*
X90554734Y-63851500D01*
X90560484Y-63853041D01*
X90562310Y-63854095D01*
X90595413Y-63873207D01*
X90697273Y-63900500D01*
X90802727Y-63900500D01*
X90904587Y-63873207D01*
X90995913Y-63820480D01*
X91070480Y-63745913D01*
X91123207Y-63654587D01*
X91150500Y-63552727D01*
X91150500Y-63447273D01*
X91123207Y-63345413D01*
X91070480Y-63254087D01*
X90995913Y-63179520D01*
X90995912Y-63179519D01*
X90904591Y-63126795D01*
X90904589Y-63126794D01*
X90904587Y-63126793D01*
X90904583Y-63126792D01*
X90904581Y-63126791D01*
X90802727Y-63099500D01*
X90697273Y-63099500D01*
X90595418Y-63126791D01*
X90595408Y-63126795D01*
X90504087Y-63179519D01*
X90429519Y-63254087D01*
X90376795Y-63345408D01*
X90376791Y-63345418D01*
X90350919Y-63441976D01*
X90345561Y-63448959D01*
X90339811Y-63450500D01*
X88840735Y-63450500D01*
X88832603Y-63447132D01*
X88829235Y-63439000D01*
X88832603Y-63430868D01*
X88834346Y-63429438D01*
X88840240Y-63425500D01*
X88954035Y-63349464D01*
X89079464Y-63224035D01*
X89178013Y-63076547D01*
X89245894Y-62912666D01*
X89280500Y-62738691D01*
X89280500Y-62561309D01*
X89245894Y-62387334D01*
X89178013Y-62223453D01*
X89079464Y-62075965D01*
X88954035Y-61950536D01*
X88922583Y-61929520D01*
X88806549Y-61851988D01*
X88800542Y-61849500D01*
X88642666Y-61784106D01*
X88642664Y-61784105D01*
X88537901Y-61763266D01*
X88468691Y-61749500D01*
X88291309Y-61749500D01*
X88204913Y-61766685D01*
X88117337Y-61784105D01*
X88117334Y-61784105D01*
X87953450Y-61851988D01*
X87805968Y-61950533D01*
X87680533Y-62075968D01*
X87581988Y-62223450D01*
X87514105Y-62387334D01*
X87514105Y-62387337D01*
X87502183Y-62447273D01*
X87479500Y-62561309D01*
X87479500Y-62738691D01*
X87492238Y-62802727D01*
X87514105Y-62912662D01*
X87514105Y-62912665D01*
X87581988Y-63076549D01*
X87680533Y-63224031D01*
X87680536Y-63224035D01*
X87805965Y-63349464D01*
X87912154Y-63420418D01*
X87925654Y-63429438D01*
X87930544Y-63436756D01*
X87928827Y-63445389D01*
X87921509Y-63450279D01*
X87919265Y-63450500D01*
X84888882Y-63450500D01*
X84809118Y-63450500D01*
X84735426Y-63481024D01*
X84735424Y-63481025D01*
X75858072Y-72358376D01*
X75849940Y-72361744D01*
X75846964Y-72361352D01*
X75802727Y-72349500D01*
X75697273Y-72349500D01*
X75595418Y-72376791D01*
X75595408Y-72376795D01*
X75504087Y-72429519D01*
X75429519Y-72504087D01*
X75376795Y-72595408D01*
X75376791Y-72595418D01*
X75349500Y-72697273D01*
X74035719Y-72697273D01*
X74005894Y-72547334D01*
X73938013Y-72383453D01*
X73839464Y-72235965D01*
X73714035Y-72110536D01*
X73714031Y-72110533D01*
X73566549Y-72011988D01*
X73402664Y-71944105D01*
X73297901Y-71923266D01*
X73228691Y-71909500D01*
X73051309Y-71909500D01*
X72964913Y-71926685D01*
X72877337Y-71944105D01*
X72877334Y-71944105D01*
X72713450Y-72011988D01*
X72565968Y-72110533D01*
X72440533Y-72235968D01*
X72341988Y-72383450D01*
X72274105Y-72547334D01*
X72274105Y-72547337D01*
X72254356Y-72646621D01*
X72239500Y-72721309D01*
X70450500Y-72721309D01*
X70450500Y-70181309D01*
X72239500Y-70181309D01*
X72239500Y-70358691D01*
X72258453Y-70453973D01*
X72274105Y-70532662D01*
X72274105Y-70532665D01*
X72341988Y-70696549D01*
X72440533Y-70844031D01*
X72440536Y-70844035D01*
X72565965Y-70969464D01*
X72713453Y-71068013D01*
X72877334Y-71135894D01*
X73051309Y-71170500D01*
X73051311Y-71170500D01*
X73228689Y-71170500D01*
X73228691Y-71170500D01*
X73402666Y-71135894D01*
X73566547Y-71068013D01*
X73714035Y-70969464D01*
X73839464Y-70844035D01*
X73938013Y-70696547D01*
X74005894Y-70532666D01*
X74040500Y-70358691D01*
X74040500Y-70181309D01*
X74005894Y-70007334D01*
X73938013Y-69843453D01*
X73839464Y-69695965D01*
X73714035Y-69570536D01*
X73614588Y-69504087D01*
X73566549Y-69471988D01*
X73402664Y-69404105D01*
X73297901Y-69383266D01*
X73228691Y-69369500D01*
X73051309Y-69369500D01*
X72964913Y-69386685D01*
X72877337Y-69404105D01*
X72877334Y-69404105D01*
X72713450Y-69471988D01*
X72565968Y-69570533D01*
X72440533Y-69695968D01*
X72341988Y-69843450D01*
X72274105Y-70007334D01*
X72274105Y-70007337D01*
X72254542Y-70105690D01*
X72239500Y-70181309D01*
X70450500Y-70181309D01*
X70450500Y-69710118D01*
X70450499Y-69710116D01*
X70447911Y-69703868D01*
X70445179Y-69697273D01*
X70437826Y-69679520D01*
X70419976Y-69636426D01*
X70363574Y-69580024D01*
X70363572Y-69580023D01*
X70113574Y-69330024D01*
X70039882Y-69299500D01*
X67789882Y-69299500D01*
X67710118Y-69299500D01*
X67636426Y-69330024D01*
X67636424Y-69330025D01*
X65170318Y-71796132D01*
X65162186Y-71799500D01*
X60587814Y-71799500D01*
X60579682Y-71796132D01*
X59980823Y-71197273D01*
X60599500Y-71197273D01*
X60599500Y-71302726D01*
X60626791Y-71404581D01*
X60626795Y-71404591D01*
X60666921Y-71474092D01*
X60679520Y-71495913D01*
X60754087Y-71570480D01*
X60845413Y-71623207D01*
X60947273Y-71650500D01*
X61052727Y-71650500D01*
X61154587Y-71623207D01*
X61245913Y-71570480D01*
X61320480Y-71495913D01*
X61373207Y-71404587D01*
X61400500Y-71302727D01*
X61400500Y-71197273D01*
X61373207Y-71095413D01*
X61320480Y-71004087D01*
X61245913Y-70929520D01*
X61245912Y-70929519D01*
X61206250Y-70906619D01*
X61200892Y-70899636D01*
X61200500Y-70896660D01*
X61200500Y-70587813D01*
X61203867Y-70579682D01*
X61391927Y-70391621D01*
X61400058Y-70388254D01*
X61403031Y-70388645D01*
X61447273Y-70400500D01*
X61552727Y-70400500D01*
X61654587Y-70373207D01*
X61745913Y-70320480D01*
X61820480Y-70245913D01*
X61873207Y-70154587D01*
X61900500Y-70052727D01*
X61900500Y-69947273D01*
X61873207Y-69845413D01*
X61820480Y-69754087D01*
X61745913Y-69679520D01*
X61745912Y-69679519D01*
X61654591Y-69626795D01*
X61654589Y-69626794D01*
X61654587Y-69626793D01*
X61654583Y-69626792D01*
X61654581Y-69626791D01*
X61552727Y-69599500D01*
X61447273Y-69599500D01*
X61345418Y-69626791D01*
X61345408Y-69626795D01*
X61254087Y-69679519D01*
X61179519Y-69754087D01*
X61126795Y-69845408D01*
X61126791Y-69845418D01*
X61099500Y-69947273D01*
X61099500Y-70052726D01*
X61111352Y-70096964D01*
X61110203Y-70105690D01*
X61108376Y-70108072D01*
X60886426Y-70330024D01*
X60830025Y-70386424D01*
X60830024Y-70386425D01*
X60830024Y-70386426D01*
X60802046Y-70453973D01*
X60799500Y-70460119D01*
X60799500Y-70896660D01*
X60796132Y-70904792D01*
X60793750Y-70906619D01*
X60754087Y-70929519D01*
X60679519Y-71004087D01*
X60626795Y-71095408D01*
X60626791Y-71095418D01*
X60599500Y-71197273D01*
X59980823Y-71197273D01*
X59807236Y-71023686D01*
X59803868Y-71015554D01*
X59807236Y-71007422D01*
X59815368Y-71004054D01*
X59906281Y-71004054D01*
X60008141Y-70976761D01*
X60099467Y-70924034D01*
X60174034Y-70849467D01*
X60226761Y-70758141D01*
X60254054Y-70656281D01*
X60254054Y-70550827D01*
X60242200Y-70506587D01*
X60243349Y-70497862D01*
X60245172Y-70495484D01*
X61919976Y-68820682D01*
X61950500Y-68746990D01*
X61950500Y-68667226D01*
X61950500Y-68603338D01*
X61953868Y-68595206D01*
X61956250Y-68593379D01*
X61962969Y-68589500D01*
X61995913Y-68570480D01*
X62070480Y-68495913D01*
X62098562Y-68447273D01*
X63424500Y-68447273D01*
X63424500Y-68552726D01*
X63451791Y-68654581D01*
X63451795Y-68654591D01*
X63481620Y-68706250D01*
X63504520Y-68745913D01*
X63579087Y-68820480D01*
X63670413Y-68873207D01*
X63772273Y-68900500D01*
X63877727Y-68900500D01*
X63979587Y-68873207D01*
X64070913Y-68820480D01*
X64145480Y-68745913D01*
X64198207Y-68654587D01*
X64225500Y-68552727D01*
X64225500Y-68447273D01*
X64198207Y-68345413D01*
X64145480Y-68254087D01*
X64070913Y-68179520D01*
X64070912Y-68179519D01*
X63979591Y-68126795D01*
X63979589Y-68126794D01*
X63979587Y-68126793D01*
X63979583Y-68126792D01*
X63979581Y-68126791D01*
X63877727Y-68099500D01*
X63772273Y-68099500D01*
X63670418Y-68126791D01*
X63670408Y-68126795D01*
X63579087Y-68179519D01*
X63504519Y-68254087D01*
X63451795Y-68345408D01*
X63451791Y-68345418D01*
X63424500Y-68447273D01*
X62098562Y-68447273D01*
X62123207Y-68404587D01*
X62150500Y-68302727D01*
X62150500Y-68197273D01*
X62123207Y-68095413D01*
X62070480Y-68004087D01*
X61995913Y-67929520D01*
X61995912Y-67929519D01*
X61904591Y-67876795D01*
X61904589Y-67876794D01*
X61904587Y-67876793D01*
X61904583Y-67876792D01*
X61904581Y-67876791D01*
X61802727Y-67849500D01*
X61697273Y-67849500D01*
X61595418Y-67876791D01*
X61595408Y-67876795D01*
X61504087Y-67929519D01*
X61429519Y-68004087D01*
X61376795Y-68095408D01*
X61376791Y-68095418D01*
X61360412Y-68156547D01*
X61349500Y-68197273D01*
X61349500Y-68302727D01*
X61360575Y-68344060D01*
X61376791Y-68404581D01*
X61376795Y-68404591D01*
X61429519Y-68495912D01*
X61504087Y-68570480D01*
X61543750Y-68593379D01*
X61544695Y-68594611D01*
X61546132Y-68595206D01*
X61547280Y-68597980D01*
X61549108Y-68600361D01*
X61549500Y-68603338D01*
X61549500Y-68619294D01*
X61546132Y-68627426D01*
X61170132Y-69003426D01*
X61162000Y-69006794D01*
X61153868Y-69003426D01*
X61150500Y-68995294D01*
X61150500Y-68947273D01*
X61146968Y-68934092D01*
X61123207Y-68845413D01*
X61070480Y-68754087D01*
X60995913Y-68679520D01*
X60995912Y-68679519D01*
X60904591Y-68626795D01*
X60904589Y-68626794D01*
X60904587Y-68626793D01*
X60904583Y-68626792D01*
X60904581Y-68626791D01*
X60802727Y-68599500D01*
X60697273Y-68599500D01*
X60595418Y-68626791D01*
X60595408Y-68626795D01*
X60504087Y-68679519D01*
X60429519Y-68754087D01*
X60376795Y-68845408D01*
X60376791Y-68845418D01*
X60349500Y-68947273D01*
X60349500Y-69052726D01*
X60361352Y-69096964D01*
X60360203Y-69105690D01*
X60358376Y-69108072D01*
X59011426Y-70455024D01*
X58955025Y-70511424D01*
X58955024Y-70511425D01*
X58955024Y-70511426D01*
X58926415Y-70580496D01*
X58924500Y-70585119D01*
X58924500Y-70664880D01*
X58924499Y-70664880D01*
X49500500Y-70664880D01*
X49500500Y-69446384D01*
X53799500Y-69446384D01*
X53799500Y-69633615D01*
X53836025Y-69817245D01*
X53836026Y-69817250D01*
X53907679Y-69990233D01*
X53996530Y-70123208D01*
X54011698Y-70145908D01*
X54144092Y-70278302D01*
X54299769Y-70382322D01*
X54472749Y-70453973D01*
X54656384Y-70490500D01*
X54656385Y-70490500D01*
X54843615Y-70490500D01*
X54843616Y-70490500D01*
X55027251Y-70453973D01*
X55200231Y-70382322D01*
X55355908Y-70278302D01*
X55488302Y-70145908D01*
X55592322Y-69990231D01*
X55663973Y-69817251D01*
X55700500Y-69633616D01*
X55700500Y-69446384D01*
X55663973Y-69262749D01*
X55592322Y-69089769D01*
X55488302Y-68934092D01*
X55355908Y-68801698D01*
X55355904Y-68801695D01*
X55200233Y-68697679D01*
X55191935Y-68694242D01*
X55126714Y-68667226D01*
X55027250Y-68626026D01*
X55027245Y-68626025D01*
X54863117Y-68593379D01*
X54843616Y-68589500D01*
X54656384Y-68589500D01*
X54636883Y-68593379D01*
X54472754Y-68626025D01*
X54472749Y-68626026D01*
X54299766Y-68697679D01*
X54144095Y-68801695D01*
X54011695Y-68934095D01*
X53907679Y-69089766D01*
X53836026Y-69262749D01*
X53836025Y-69262754D01*
X53799500Y-69446384D01*
X49500500Y-69446384D01*
X49500500Y-66906384D01*
X53799500Y-66906384D01*
X53799500Y-67093616D01*
X53806725Y-67129943D01*
X53836025Y-67277245D01*
X53836026Y-67277250D01*
X53907679Y-67450233D01*
X54011695Y-67605904D01*
X54011698Y-67605908D01*
X54144092Y-67738302D01*
X54299769Y-67842322D01*
X54472749Y-67913973D01*
X54656384Y-67950500D01*
X54656385Y-67950500D01*
X54843615Y-67950500D01*
X54843616Y-67950500D01*
X55027251Y-67913973D01*
X55200231Y-67842322D01*
X55355908Y-67738302D01*
X55488302Y-67605908D01*
X55592322Y-67450231D01*
X55663973Y-67277251D01*
X55700500Y-67093616D01*
X55700500Y-66906384D01*
X55663973Y-66722749D01*
X55592322Y-66549769D01*
X55488302Y-66394092D01*
X55355908Y-66261698D01*
X55259489Y-66197273D01*
X58849500Y-66197273D01*
X58849500Y-66302726D01*
X58873981Y-66394095D01*
X58876792Y-66404585D01*
X58876795Y-66404591D01*
X58912509Y-66466450D01*
X58929520Y-66495913D01*
X59004087Y-66570480D01*
X59095413Y-66623207D01*
X59197273Y-66650500D01*
X59302726Y-66650500D01*
X59302727Y-66650500D01*
X59346965Y-66638646D01*
X59355690Y-66639795D01*
X59358072Y-66641622D01*
X60580023Y-67863572D01*
X60580024Y-67863574D01*
X60636426Y-67919976D01*
X60710118Y-67950500D01*
X60710119Y-67950500D01*
X61289880Y-67950500D01*
X61289882Y-67950500D01*
X61363574Y-67919976D01*
X62579682Y-66703868D01*
X62587814Y-66700500D01*
X63662186Y-66700500D01*
X63670318Y-66703868D01*
X66046132Y-69079682D01*
X66049500Y-69087814D01*
X66049500Y-69396660D01*
X66046132Y-69404792D01*
X66043750Y-69406619D01*
X66004087Y-69429519D01*
X65929519Y-69504087D01*
X65876795Y-69595408D01*
X65876791Y-69595418D01*
X65854257Y-69679519D01*
X65849500Y-69697273D01*
X65849500Y-69802727D01*
X65853392Y-69817251D01*
X65876791Y-69904581D01*
X65876795Y-69904591D01*
X65926240Y-69990233D01*
X65929520Y-69995913D01*
X66004087Y-70070480D01*
X66095413Y-70123207D01*
X66197273Y-70150500D01*
X66302727Y-70150500D01*
X66404587Y-70123207D01*
X66495913Y-70070480D01*
X66570480Y-69995913D01*
X66623207Y-69904587D01*
X66650500Y-69802727D01*
X66650500Y-69697273D01*
X66623207Y-69595413D01*
X66570480Y-69504087D01*
X66495913Y-69429520D01*
X66495912Y-69429519D01*
X66456250Y-69406619D01*
X66450892Y-69399636D01*
X66450500Y-69396660D01*
X66450500Y-68960119D01*
X66450500Y-68960118D01*
X66419976Y-68886426D01*
X66363574Y-68830024D01*
X63863574Y-66330024D01*
X63789882Y-66299500D01*
X62539882Y-66299500D01*
X62460118Y-66299500D01*
X62386426Y-66330024D01*
X62386424Y-66330025D01*
X61170318Y-67546132D01*
X61162186Y-67549500D01*
X60837813Y-67549500D01*
X60829681Y-67546132D01*
X60703681Y-67420132D01*
X60700313Y-67412000D01*
X60703681Y-67403868D01*
X60711813Y-67400500D01*
X60802727Y-67400500D01*
X60904587Y-67373207D01*
X60995913Y-67320480D01*
X61070480Y-67245913D01*
X61123207Y-67154587D01*
X61150500Y-67052727D01*
X61150500Y-66947273D01*
X61138646Y-66903033D01*
X61139795Y-66894308D01*
X61141618Y-66891930D01*
X61836276Y-66197273D01*
X64349500Y-66197273D01*
X64349500Y-66302726D01*
X64373981Y-66394095D01*
X64376792Y-66404585D01*
X64376795Y-66404591D01*
X64412509Y-66466450D01*
X64429520Y-66495913D01*
X64504087Y-66570480D01*
X64595413Y-66623207D01*
X64697273Y-66650500D01*
X64802726Y-66650500D01*
X64802727Y-66650500D01*
X64846965Y-66638646D01*
X64855690Y-66639795D01*
X64858072Y-66641622D01*
X66886426Y-68669976D01*
X66960118Y-68700500D01*
X67039883Y-68700500D01*
X68396662Y-68700500D01*
X68404794Y-68703868D01*
X68406621Y-68706250D01*
X68421958Y-68732816D01*
X68429520Y-68745913D01*
X68504087Y-68820480D01*
X68595413Y-68873207D01*
X68697273Y-68900500D01*
X68802727Y-68900500D01*
X68904587Y-68873207D01*
X68995913Y-68820480D01*
X69070480Y-68745913D01*
X69123207Y-68654587D01*
X69150500Y-68552727D01*
X69150500Y-68447273D01*
X69123207Y-68345413D01*
X69070480Y-68254087D01*
X68995913Y-68179520D01*
X68995912Y-68179519D01*
X68904591Y-68126795D01*
X68904589Y-68126794D01*
X68904587Y-68126793D01*
X68904583Y-68126792D01*
X68904581Y-68126791D01*
X68802727Y-68099500D01*
X68697273Y-68099500D01*
X68595418Y-68126791D01*
X68595408Y-68126795D01*
X68504087Y-68179519D01*
X68429519Y-68254087D01*
X68406621Y-68293750D01*
X68399639Y-68299108D01*
X68396662Y-68299500D01*
X67087814Y-68299500D01*
X67079682Y-68296132D01*
X65141622Y-66358072D01*
X65138254Y-66349940D01*
X65138645Y-66346969D01*
X65150500Y-66302727D01*
X65150500Y-66197273D01*
X65123207Y-66095413D01*
X65070480Y-66004087D01*
X65013666Y-65947273D01*
X65349500Y-65947273D01*
X65349500Y-66052726D01*
X65376791Y-66154581D01*
X65376795Y-66154591D01*
X65401437Y-66197273D01*
X65429520Y-66245913D01*
X65504087Y-66320480D01*
X65595413Y-66373207D01*
X65697273Y-66400500D01*
X65802726Y-66400500D01*
X65802727Y-66400500D01*
X65846965Y-66388646D01*
X65855690Y-66389795D01*
X65858072Y-66391622D01*
X67108376Y-67641926D01*
X67111744Y-67650058D01*
X67111352Y-67653034D01*
X67099500Y-67697273D01*
X67099500Y-67802727D01*
X67110109Y-67842320D01*
X67126791Y-67904581D01*
X67126795Y-67904591D01*
X67177644Y-67992665D01*
X67179520Y-67995913D01*
X67254087Y-68070480D01*
X67345413Y-68123207D01*
X67447273Y-68150500D01*
X67552727Y-68150500D01*
X67654587Y-68123207D01*
X67745913Y-68070480D01*
X67820480Y-67995913D01*
X67873207Y-67904587D01*
X67900500Y-67802727D01*
X67900500Y-67697273D01*
X67873207Y-67595413D01*
X67820480Y-67504087D01*
X67745913Y-67429520D01*
X67745912Y-67429519D01*
X67654591Y-67376795D01*
X67654589Y-67376794D01*
X67654587Y-67376793D01*
X67654583Y-67376792D01*
X67654581Y-67376791D01*
X67552727Y-67349500D01*
X67447273Y-67349500D01*
X67403034Y-67361352D01*
X67394308Y-67360203D01*
X67391926Y-67358376D01*
X66141622Y-66108072D01*
X66138254Y-66099940D01*
X66138645Y-66096969D01*
X66150500Y-66052727D01*
X66150500Y-65947273D01*
X66123207Y-65845413D01*
X66070480Y-65754087D01*
X65995913Y-65679520D01*
X65995912Y-65679519D01*
X65904591Y-65626795D01*
X65904589Y-65626794D01*
X65904587Y-65626793D01*
X65904583Y-65626792D01*
X65904581Y-65626791D01*
X65802727Y-65599500D01*
X65697273Y-65599500D01*
X65595418Y-65626791D01*
X65595408Y-65626795D01*
X65504087Y-65679519D01*
X65429519Y-65754087D01*
X65376795Y-65845408D01*
X65376791Y-65845418D01*
X65349500Y-65947273D01*
X65013666Y-65947273D01*
X64995913Y-65929520D01*
X64995912Y-65929519D01*
X64904591Y-65876795D01*
X64904589Y-65876794D01*
X64904587Y-65876793D01*
X64904583Y-65876792D01*
X64904581Y-65876791D01*
X64802727Y-65849500D01*
X64697273Y-65849500D01*
X64595418Y-65876791D01*
X64595408Y-65876795D01*
X64504087Y-65929519D01*
X64429519Y-66004087D01*
X64376795Y-66095408D01*
X64376791Y-66095418D01*
X64349500Y-66197273D01*
X61836276Y-66197273D01*
X63079682Y-64953868D01*
X63087814Y-64950500D01*
X63146662Y-64950500D01*
X63154794Y-64953868D01*
X63156619Y-64956248D01*
X63179520Y-64995913D01*
X63254087Y-65070480D01*
X63345413Y-65123207D01*
X63447273Y-65150500D01*
X63552727Y-65150500D01*
X63654587Y-65123207D01*
X63745913Y-65070480D01*
X63820480Y-64995913D01*
X63873207Y-64904587D01*
X63900500Y-64802727D01*
X63900500Y-64697273D01*
X63873207Y-64595413D01*
X63820480Y-64504087D01*
X63745913Y-64429520D01*
X63745912Y-64429519D01*
X63654591Y-64376795D01*
X63654589Y-64376794D01*
X63654587Y-64376793D01*
X63654583Y-64376792D01*
X63654581Y-64376791D01*
X63552727Y-64349500D01*
X63447273Y-64349500D01*
X63345418Y-64376791D01*
X63345408Y-64376795D01*
X63254087Y-64429519D01*
X63179519Y-64504087D01*
X63156621Y-64543750D01*
X63149639Y-64549108D01*
X63146662Y-64549500D01*
X63039883Y-64549500D01*
X62960118Y-64549500D01*
X62886426Y-64580024D01*
X62886424Y-64580025D01*
X60858072Y-66608376D01*
X60849940Y-66611744D01*
X60846964Y-66611352D01*
X60802727Y-66599500D01*
X60697273Y-66599500D01*
X60595418Y-66626791D01*
X60595408Y-66626795D01*
X60504087Y-66679519D01*
X60429519Y-66754087D01*
X60376795Y-66845408D01*
X60376791Y-66845418D01*
X60349500Y-66947273D01*
X60349500Y-67038186D01*
X60346132Y-67046318D01*
X60338000Y-67049686D01*
X60329868Y-67046318D01*
X59641622Y-66358072D01*
X59638254Y-66349940D01*
X59638645Y-66346969D01*
X59650500Y-66302727D01*
X59650500Y-66197273D01*
X59623207Y-66095413D01*
X59570480Y-66004087D01*
X59495913Y-65929520D01*
X59495912Y-65929519D01*
X59404591Y-65876795D01*
X59404589Y-65876794D01*
X59404587Y-65876793D01*
X59404583Y-65876792D01*
X59404581Y-65876791D01*
X59302727Y-65849500D01*
X59197273Y-65849500D01*
X59095418Y-65876791D01*
X59095408Y-65876795D01*
X59004087Y-65929519D01*
X58929519Y-66004087D01*
X58876795Y-66095408D01*
X58876791Y-66095418D01*
X58849500Y-66197273D01*
X55259489Y-66197273D01*
X55246190Y-66188387D01*
X55200233Y-66157679D01*
X55192768Y-66154587D01*
X55161045Y-66141446D01*
X55027250Y-66086026D01*
X55027245Y-66086025D01*
X54859829Y-66052725D01*
X54843616Y-66049500D01*
X54656384Y-66049500D01*
X54640171Y-66052725D01*
X54472754Y-66086025D01*
X54472749Y-66086026D01*
X54299766Y-66157679D01*
X54144095Y-66261695D01*
X54011695Y-66394095D01*
X53907679Y-66549766D01*
X53836026Y-66722749D01*
X53836025Y-66722754D01*
X53802376Y-66891926D01*
X53799500Y-66906384D01*
X49500500Y-66906384D01*
X49500500Y-64366384D01*
X53799500Y-64366384D01*
X53799500Y-64553615D01*
X53836025Y-64737245D01*
X53836026Y-64737250D01*
X53907679Y-64910233D01*
X54011695Y-65065904D01*
X54011698Y-65065908D01*
X54144092Y-65198302D01*
X54299769Y-65302322D01*
X54472749Y-65373973D01*
X54656384Y-65410500D01*
X54656385Y-65410500D01*
X54843615Y-65410500D01*
X54843616Y-65410500D01*
X55027251Y-65373973D01*
X55200231Y-65302322D01*
X55355908Y-65198302D01*
X55488302Y-65065908D01*
X55592322Y-64910231D01*
X55663973Y-64737251D01*
X55700500Y-64553616D01*
X55700500Y-64366384D01*
X55663973Y-64182749D01*
X55592322Y-64009769D01*
X55488302Y-63854092D01*
X55355908Y-63721698D01*
X55355904Y-63721695D01*
X55200233Y-63617679D01*
X55027250Y-63546026D01*
X55027245Y-63546025D01*
X54875761Y-63515894D01*
X54843616Y-63509500D01*
X54656384Y-63509500D01*
X54626056Y-63515532D01*
X54472754Y-63546025D01*
X54472749Y-63546026D01*
X54299766Y-63617679D01*
X54144095Y-63721695D01*
X54011695Y-63854095D01*
X53907679Y-64009766D01*
X53836026Y-64182749D01*
X53836025Y-64182754D01*
X53799500Y-64366384D01*
X49500500Y-64366384D01*
X49500500Y-63447273D01*
X69099500Y-63447273D01*
X69099500Y-63552726D01*
X69126791Y-63654581D01*
X69126795Y-63654591D01*
X69170096Y-63729591D01*
X69179520Y-63745913D01*
X69254087Y-63820480D01*
X69345413Y-63873207D01*
X69447273Y-63900500D01*
X69541475Y-63900500D01*
X69549607Y-63903868D01*
X69746132Y-64100392D01*
X69749500Y-64108524D01*
X69749500Y-67929343D01*
X69746132Y-67937475D01*
X69679519Y-68004087D01*
X69626795Y-68095408D01*
X69626791Y-68095418D01*
X69610412Y-68156547D01*
X69599500Y-68197273D01*
X69599500Y-68302727D01*
X69610575Y-68344060D01*
X69626791Y-68404581D01*
X69626795Y-68404591D01*
X69651437Y-68447273D01*
X69679520Y-68495913D01*
X69754087Y-68570480D01*
X69845413Y-68623207D01*
X69947273Y-68650500D01*
X70052727Y-68650500D01*
X70154587Y-68623207D01*
X70245913Y-68570480D01*
X70320480Y-68495913D01*
X70373207Y-68404587D01*
X70400500Y-68302727D01*
X70400500Y-68197273D01*
X70373207Y-68095413D01*
X70320480Y-68004087D01*
X70253868Y-67937475D01*
X70250500Y-67929343D01*
X70250500Y-67641309D01*
X72239500Y-67641309D01*
X72239500Y-67818691D01*
X72258453Y-67913973D01*
X72274105Y-67992662D01*
X72274105Y-67992665D01*
X72341988Y-68156549D01*
X72439661Y-68302726D01*
X72440536Y-68304035D01*
X72565965Y-68429464D01*
X72713453Y-68528013D01*
X72877334Y-68595894D01*
X73051309Y-68630500D01*
X73051311Y-68630500D01*
X73228689Y-68630500D01*
X73228691Y-68630500D01*
X73402666Y-68595894D01*
X73566547Y-68528013D01*
X73714035Y-68429464D01*
X73839464Y-68304035D01*
X73938013Y-68156547D01*
X74005894Y-67992666D01*
X74040500Y-67818691D01*
X74040500Y-67641309D01*
X74005894Y-67467334D01*
X73938013Y-67303453D01*
X73839464Y-67155965D01*
X73714035Y-67030536D01*
X73674452Y-67004087D01*
X73566549Y-66931988D01*
X73560588Y-66929519D01*
X73469830Y-66891926D01*
X73402664Y-66864105D01*
X73297901Y-66843266D01*
X73228691Y-66829500D01*
X73051309Y-66829500D01*
X72971284Y-66845418D01*
X72877337Y-66864105D01*
X72877334Y-66864105D01*
X72713450Y-66931988D01*
X72565968Y-67030533D01*
X72440533Y-67155968D01*
X72341988Y-67303450D01*
X72274105Y-67467334D01*
X72274105Y-67467337D01*
X72239500Y-67641309D01*
X70250500Y-67641309D01*
X70250500Y-65101310D01*
X72239500Y-65101310D01*
X72239500Y-65278689D01*
X72274105Y-65452662D01*
X72274105Y-65452665D01*
X72341988Y-65616549D01*
X72384064Y-65679520D01*
X72440536Y-65764035D01*
X72565965Y-65889464D01*
X72713453Y-65988013D01*
X72877334Y-66055894D01*
X73051309Y-66090500D01*
X73051311Y-66090500D01*
X73228689Y-66090500D01*
X73228691Y-66090500D01*
X73402666Y-66055894D01*
X73566547Y-65988013D01*
X73714035Y-65889464D01*
X73839464Y-65764035D01*
X73938013Y-65616547D01*
X74005894Y-65452666D01*
X74040500Y-65278691D01*
X74040500Y-65101309D01*
X74005894Y-64927334D01*
X73938013Y-64763453D01*
X73839464Y-64615965D01*
X73714035Y-64490536D01*
X73622719Y-64429520D01*
X73566549Y-64391988D01*
X73402664Y-64324105D01*
X73297901Y-64303266D01*
X73228691Y-64289500D01*
X73051309Y-64289500D01*
X72964913Y-64306685D01*
X72877337Y-64324105D01*
X72877334Y-64324105D01*
X72713450Y-64391988D01*
X72565968Y-64490533D01*
X72440533Y-64615968D01*
X72341988Y-64763450D01*
X72274105Y-64927334D01*
X72274105Y-64927337D01*
X72239500Y-65101310D01*
X70250500Y-65101310D01*
X70250500Y-64051171D01*
X70250501Y-64051162D01*
X70250501Y-63950172D01*
X70212364Y-63858104D01*
X70212364Y-63858103D01*
X70141897Y-63787636D01*
X70141895Y-63787635D01*
X69903868Y-63549607D01*
X69900500Y-63541475D01*
X69900500Y-63447273D01*
X69873208Y-63345418D01*
X69873207Y-63345413D01*
X69820480Y-63254087D01*
X69745913Y-63179520D01*
X69745912Y-63179519D01*
X69654591Y-63126795D01*
X69654589Y-63126794D01*
X69654587Y-63126793D01*
X69654583Y-63126792D01*
X69654581Y-63126791D01*
X69552727Y-63099500D01*
X69447273Y-63099500D01*
X69345418Y-63126791D01*
X69345408Y-63126795D01*
X69254087Y-63179519D01*
X69179519Y-63254087D01*
X69126795Y-63345408D01*
X69126791Y-63345418D01*
X69099500Y-63447273D01*
X49500500Y-63447273D01*
X49500500Y-62447273D01*
X60099500Y-62447273D01*
X60099500Y-62552726D01*
X60126791Y-62654581D01*
X60126795Y-62654591D01*
X60151437Y-62697273D01*
X60179520Y-62745913D01*
X60254087Y-62820480D01*
X60345413Y-62873207D01*
X60447273Y-62900500D01*
X60552727Y-62900500D01*
X60654587Y-62873207D01*
X60745913Y-62820480D01*
X60812525Y-62753868D01*
X60820657Y-62750500D01*
X64838000Y-62750500D01*
X64846132Y-62753868D01*
X64849500Y-62762000D01*
X64849500Y-62802726D01*
X64876791Y-62904581D01*
X64876795Y-62904591D01*
X64910307Y-62962636D01*
X64929520Y-62995913D01*
X65004087Y-63070480D01*
X65095413Y-63123207D01*
X65197273Y-63150500D01*
X65302727Y-63150500D01*
X65404587Y-63123207D01*
X65495913Y-63070480D01*
X65570480Y-62995913D01*
X65623207Y-62904587D01*
X65650500Y-62802727D01*
X65650500Y-62697273D01*
X65623207Y-62595413D01*
X65603517Y-62561309D01*
X72239500Y-62561309D01*
X72239500Y-62738691D01*
X72252238Y-62802727D01*
X72274105Y-62912662D01*
X72274105Y-62912665D01*
X72341988Y-63076549D01*
X72440533Y-63224031D01*
X72440536Y-63224035D01*
X72565965Y-63349464D01*
X72713453Y-63448013D01*
X72877334Y-63515894D01*
X73051309Y-63550500D01*
X73051311Y-63550500D01*
X73228689Y-63550500D01*
X73228691Y-63550500D01*
X73402666Y-63515894D01*
X73566547Y-63448013D01*
X73714035Y-63349464D01*
X73839464Y-63224035D01*
X73938013Y-63076547D01*
X74005894Y-62912666D01*
X74040500Y-62738691D01*
X74040500Y-62561309D01*
X74005894Y-62387334D01*
X73938013Y-62223453D01*
X73839464Y-62075965D01*
X73714035Y-61950536D01*
X73682583Y-61929520D01*
X73566549Y-61851988D01*
X73560542Y-61849500D01*
X73402666Y-61784106D01*
X73402664Y-61784105D01*
X73297901Y-61763266D01*
X73228691Y-61749500D01*
X73051309Y-61749500D01*
X72964913Y-61766685D01*
X72877337Y-61784105D01*
X72877334Y-61784105D01*
X72713450Y-61851988D01*
X72565968Y-61950533D01*
X72440533Y-62075968D01*
X72341988Y-62223450D01*
X72274105Y-62387334D01*
X72274105Y-62387337D01*
X72262183Y-62447273D01*
X72239500Y-62561309D01*
X65603517Y-62561309D01*
X65598562Y-62552727D01*
X65570480Y-62504087D01*
X65495912Y-62429519D01*
X65404591Y-62376795D01*
X65404589Y-62376794D01*
X65404587Y-62376793D01*
X65404583Y-62376792D01*
X65404581Y-62376791D01*
X65302727Y-62349500D01*
X65208525Y-62349500D01*
X65200393Y-62346132D01*
X65141898Y-62287637D01*
X65141897Y-62287636D01*
X65049828Y-62249500D01*
X65049826Y-62249500D01*
X60820657Y-62249500D01*
X60812525Y-62246132D01*
X60745912Y-62179519D01*
X60654591Y-62126795D01*
X60654589Y-62126794D01*
X60654587Y-62126793D01*
X60654583Y-62126792D01*
X60654581Y-62126791D01*
X60552727Y-62099500D01*
X60447273Y-62099500D01*
X60345418Y-62126791D01*
X60345408Y-62126795D01*
X60254087Y-62179519D01*
X60179519Y-62254087D01*
X60126795Y-62345408D01*
X60126791Y-62345418D01*
X60099500Y-62447273D01*
X49500500Y-62447273D01*
X49500500Y-60021310D01*
X72239500Y-60021310D01*
X72239500Y-60198689D01*
X72274105Y-60372662D01*
X72274105Y-60372665D01*
X72326609Y-60499421D01*
X72341987Y-60536547D01*
X72440536Y-60684035D01*
X72565965Y-60809464D01*
X72713453Y-60908013D01*
X72877334Y-60975894D01*
X73051309Y-61010500D01*
X73051311Y-61010500D01*
X73228689Y-61010500D01*
X73228691Y-61010500D01*
X73402666Y-60975894D01*
X73566547Y-60908013D01*
X73714035Y-60809464D01*
X73839464Y-60684035D01*
X73938013Y-60536547D01*
X74005894Y-60372666D01*
X74040500Y-60198691D01*
X74040500Y-60021310D01*
X87479500Y-60021310D01*
X87479500Y-60198689D01*
X87514105Y-60372662D01*
X87514105Y-60372665D01*
X87566609Y-60499421D01*
X87581987Y-60536547D01*
X87680536Y-60684035D01*
X87805965Y-60809464D01*
X87953453Y-60908013D01*
X88117334Y-60975894D01*
X88291309Y-61010500D01*
X88291311Y-61010500D01*
X88468689Y-61010500D01*
X88468691Y-61010500D01*
X88642666Y-60975894D01*
X88806547Y-60908013D01*
X88954035Y-60809464D01*
X89079464Y-60684035D01*
X89178013Y-60536547D01*
X89245894Y-60372666D01*
X89280500Y-60198691D01*
X89280500Y-60021309D01*
X89245894Y-59847334D01*
X89178013Y-59683453D01*
X89079464Y-59535965D01*
X88954035Y-59410536D01*
X88954031Y-59410533D01*
X88806549Y-59311988D01*
X88642664Y-59244105D01*
X88537901Y-59223266D01*
X88468691Y-59209500D01*
X88291309Y-59209500D01*
X88204913Y-59226685D01*
X88117337Y-59244105D01*
X88117334Y-59244105D01*
X87953450Y-59311988D01*
X87805968Y-59410533D01*
X87680533Y-59535968D01*
X87581988Y-59683450D01*
X87514105Y-59847334D01*
X87514105Y-59847337D01*
X87479500Y-60021310D01*
X74040500Y-60021310D01*
X74040500Y-60021309D01*
X74005894Y-59847334D01*
X73938013Y-59683453D01*
X73839464Y-59535965D01*
X73714035Y-59410536D01*
X73714031Y-59410533D01*
X73566549Y-59311988D01*
X73402664Y-59244105D01*
X73297901Y-59223266D01*
X73228691Y-59209500D01*
X73051309Y-59209500D01*
X72964913Y-59226685D01*
X72877337Y-59244105D01*
X72877334Y-59244105D01*
X72713450Y-59311988D01*
X72565968Y-59410533D01*
X72440533Y-59535968D01*
X72341988Y-59683450D01*
X72274105Y-59847334D01*
X72274105Y-59847337D01*
X72239500Y-60021310D01*
X49500500Y-60021310D01*
X49500500Y-56091740D01*
X61799500Y-56091740D01*
X61799500Y-57408260D01*
X61809427Y-57476393D01*
X61860802Y-57581483D01*
X61943517Y-57664198D01*
X62048607Y-57715573D01*
X62116740Y-57725500D01*
X62883260Y-57725500D01*
X62951393Y-57715573D01*
X63056483Y-57664198D01*
X63139198Y-57581483D01*
X63190573Y-57476393D01*
X63194816Y-57447273D01*
X68849500Y-57447273D01*
X68849500Y-57552726D01*
X68876791Y-57654581D01*
X68876795Y-57654591D01*
X68917734Y-57725500D01*
X68929520Y-57745913D01*
X69004087Y-57820480D01*
X69095413Y-57873207D01*
X69197273Y-57900500D01*
X69302727Y-57900500D01*
X69404587Y-57873207D01*
X69495913Y-57820480D01*
X69570480Y-57745913D01*
X69623207Y-57654587D01*
X69650500Y-57552727D01*
X69650500Y-57481309D01*
X87479500Y-57481309D01*
X87479500Y-57658691D01*
X87496850Y-57745913D01*
X87514105Y-57832662D01*
X87514105Y-57832665D01*
X87581988Y-57996549D01*
X87680533Y-58144031D01*
X87680536Y-58144035D01*
X87805965Y-58269464D01*
X87953453Y-58368013D01*
X88117334Y-58435894D01*
X88291309Y-58470500D01*
X88291311Y-58470500D01*
X88468689Y-58470500D01*
X88468691Y-58470500D01*
X88642666Y-58435894D01*
X88806547Y-58368013D01*
X88954035Y-58269464D01*
X89079464Y-58144035D01*
X89178013Y-57996547D01*
X89198423Y-57947273D01*
X97599500Y-57947273D01*
X97599500Y-58052726D01*
X97623965Y-58144035D01*
X97626793Y-58154587D01*
X97679520Y-58245913D01*
X97754087Y-58320480D01*
X97845413Y-58373207D01*
X97947273Y-58400500D01*
X98052727Y-58400500D01*
X98154587Y-58373207D01*
X98245913Y-58320480D01*
X98312525Y-58253868D01*
X98320657Y-58250500D01*
X105429343Y-58250500D01*
X105437475Y-58253868D01*
X105504087Y-58320480D01*
X105595413Y-58373207D01*
X105697273Y-58400500D01*
X105802727Y-58400500D01*
X105904587Y-58373207D01*
X105995913Y-58320480D01*
X106070480Y-58245913D01*
X106123207Y-58154587D01*
X106150500Y-58052727D01*
X106150500Y-57947273D01*
X106123207Y-57845413D01*
X106070480Y-57754087D01*
X105995913Y-57679520D01*
X105995912Y-57679519D01*
X105904591Y-57626795D01*
X105904589Y-57626794D01*
X105904587Y-57626793D01*
X105904583Y-57626792D01*
X105904581Y-57626791D01*
X105802727Y-57599500D01*
X105697273Y-57599500D01*
X105595418Y-57626791D01*
X105595408Y-57626795D01*
X105504087Y-57679519D01*
X105437475Y-57746132D01*
X105429343Y-57749500D01*
X98320657Y-57749500D01*
X98312525Y-57746132D01*
X98245912Y-57679519D01*
X98154591Y-57626795D01*
X98154589Y-57626794D01*
X98154587Y-57626793D01*
X98154583Y-57626792D01*
X98154581Y-57626791D01*
X98052727Y-57599500D01*
X97947273Y-57599500D01*
X97845418Y-57626791D01*
X97845408Y-57626795D01*
X97754087Y-57679519D01*
X97679519Y-57754087D01*
X97626795Y-57845408D01*
X97626791Y-57845418D01*
X97599500Y-57947273D01*
X89198423Y-57947273D01*
X89245894Y-57832666D01*
X89280500Y-57658691D01*
X89280500Y-57481309D01*
X89245894Y-57307334D01*
X89178013Y-57143453D01*
X89079464Y-56995965D01*
X88954035Y-56870536D01*
X88916444Y-56845418D01*
X88806549Y-56771988D01*
X88800542Y-56769500D01*
X88642666Y-56704106D01*
X88642664Y-56704105D01*
X88537901Y-56683266D01*
X88468691Y-56669500D01*
X88291309Y-56669500D01*
X88204913Y-56686685D01*
X88117337Y-56704105D01*
X88117334Y-56704105D01*
X87953450Y-56771988D01*
X87805968Y-56870533D01*
X87680533Y-56995968D01*
X87581988Y-57143450D01*
X87514105Y-57307334D01*
X87514105Y-57307337D01*
X87501003Y-57373207D01*
X87479500Y-57481309D01*
X69650500Y-57481309D01*
X69650500Y-57447273D01*
X69638646Y-57403033D01*
X69639795Y-57394308D01*
X69641618Y-57391930D01*
X70260682Y-56772868D01*
X70268814Y-56769500D01*
X84981186Y-56769500D01*
X84989318Y-56772868D01*
X85108376Y-56891926D01*
X85111744Y-56900058D01*
X85111352Y-56903034D01*
X85099500Y-56947273D01*
X85099500Y-57052726D01*
X85123809Y-57143453D01*
X85126793Y-57154587D01*
X85179520Y-57245913D01*
X85254087Y-57320480D01*
X85345413Y-57373207D01*
X85447273Y-57400500D01*
X85552727Y-57400500D01*
X85654587Y-57373207D01*
X85745913Y-57320480D01*
X85820480Y-57245913D01*
X85873207Y-57154587D01*
X85900500Y-57052727D01*
X85900500Y-56947273D01*
X85873207Y-56845413D01*
X85820480Y-56754087D01*
X85745913Y-56679520D01*
X85745912Y-56679519D01*
X85654591Y-56626795D01*
X85654589Y-56626794D01*
X85654587Y-56626793D01*
X85654583Y-56626792D01*
X85654581Y-56626791D01*
X85552727Y-56599500D01*
X85447273Y-56599500D01*
X85403034Y-56611352D01*
X85394308Y-56610203D01*
X85391926Y-56608376D01*
X85182575Y-56399025D01*
X85182574Y-56399024D01*
X85108882Y-56368500D01*
X70220882Y-56368500D01*
X70141118Y-56368500D01*
X70067426Y-56399024D01*
X70067424Y-56399025D01*
X69358072Y-57108376D01*
X69349940Y-57111744D01*
X69346964Y-57111352D01*
X69302727Y-57099500D01*
X69197273Y-57099500D01*
X69095418Y-57126791D01*
X69095408Y-57126795D01*
X69004087Y-57179519D01*
X68929519Y-57254087D01*
X68876795Y-57345408D01*
X68876791Y-57345418D01*
X68849500Y-57447273D01*
X63194816Y-57447273D01*
X63200500Y-57408260D01*
X63200500Y-56091740D01*
X63190573Y-56023607D01*
X63139198Y-55918517D01*
X63056483Y-55835802D01*
X62951393Y-55784427D01*
X62883260Y-55774500D01*
X62116740Y-55774500D01*
X62048607Y-55784427D01*
X61959454Y-55828011D01*
X61943515Y-55835803D01*
X61860803Y-55918515D01*
X61860802Y-55918516D01*
X61860802Y-55918517D01*
X61809427Y-56023607D01*
X61799500Y-56091740D01*
X49500500Y-56091740D01*
X49500500Y-54941310D01*
X72239500Y-54941310D01*
X72239500Y-55118689D01*
X72274105Y-55292662D01*
X72274105Y-55292665D01*
X72326609Y-55419421D01*
X72341987Y-55456547D01*
X72440536Y-55604035D01*
X72565965Y-55729464D01*
X72713453Y-55828013D01*
X72877334Y-55895894D01*
X73051309Y-55930500D01*
X73051311Y-55930500D01*
X73228689Y-55930500D01*
X73228691Y-55930500D01*
X73402666Y-55895894D01*
X73566547Y-55828013D01*
X73714035Y-55729464D01*
X73839464Y-55604035D01*
X73938013Y-55456547D01*
X74005894Y-55292666D01*
X74040500Y-55118691D01*
X74040500Y-54941310D01*
X87479500Y-54941310D01*
X87479500Y-55118689D01*
X87514105Y-55292662D01*
X87514105Y-55292665D01*
X87566609Y-55419421D01*
X87581987Y-55456547D01*
X87680536Y-55604035D01*
X87805965Y-55729464D01*
X87953453Y-55828013D01*
X88117334Y-55895894D01*
X88291309Y-55930500D01*
X88291311Y-55930500D01*
X88468689Y-55930500D01*
X88468691Y-55930500D01*
X88642666Y-55895894D01*
X88806547Y-55828013D01*
X88954035Y-55729464D01*
X89079464Y-55604035D01*
X89178013Y-55456547D01*
X89245894Y-55292666D01*
X89280500Y-55118691D01*
X89280500Y-54941309D01*
X89245894Y-54767334D01*
X89178013Y-54603453D01*
X89079464Y-54455965D01*
X88954035Y-54330536D01*
X88954031Y-54330533D01*
X88806549Y-54231988D01*
X88642664Y-54164105D01*
X88537901Y-54143266D01*
X88468691Y-54129500D01*
X88291309Y-54129500D01*
X88208801Y-54145912D01*
X88117337Y-54164105D01*
X88117334Y-54164105D01*
X87953450Y-54231988D01*
X87805968Y-54330533D01*
X87680533Y-54455968D01*
X87581988Y-54603450D01*
X87514105Y-54767334D01*
X87514105Y-54767337D01*
X87479500Y-54941310D01*
X74040500Y-54941310D01*
X74040500Y-54941309D01*
X74005894Y-54767334D01*
X73938013Y-54603453D01*
X73839464Y-54455965D01*
X73714035Y-54330536D01*
X73714031Y-54330533D01*
X73566549Y-54231988D01*
X73402664Y-54164105D01*
X73297901Y-54143266D01*
X73228691Y-54129500D01*
X73051309Y-54129500D01*
X72968801Y-54145912D01*
X72877337Y-54164105D01*
X72877334Y-54164105D01*
X72713450Y-54231988D01*
X72565968Y-54330533D01*
X72440533Y-54455968D01*
X72341988Y-54603450D01*
X72274105Y-54767334D01*
X72274105Y-54767337D01*
X72239500Y-54941310D01*
X49500500Y-54941310D01*
X49500500Y-53847273D01*
X59999500Y-53847273D01*
X59999500Y-53952727D01*
X60026793Y-54054587D01*
X60079520Y-54145913D01*
X60154087Y-54220480D01*
X60245413Y-54273207D01*
X60347273Y-54300500D01*
X60452727Y-54300500D01*
X60554587Y-54273207D01*
X60645913Y-54220480D01*
X60720480Y-54145913D01*
X60773207Y-54054587D01*
X60800500Y-53952727D01*
X60800500Y-53858524D01*
X60803868Y-53850392D01*
X61350392Y-53303868D01*
X61358524Y-53300500D01*
X63304343Y-53300500D01*
X63312475Y-53303868D01*
X63379087Y-53370480D01*
X63470413Y-53423207D01*
X63572273Y-53450500D01*
X63677727Y-53450500D01*
X63779587Y-53423207D01*
X63870913Y-53370480D01*
X63945480Y-53295913D01*
X63998207Y-53204587D01*
X64025500Y-53102727D01*
X64025500Y-52997273D01*
X63998207Y-52895413D01*
X63945480Y-52804087D01*
X63870913Y-52729520D01*
X63870912Y-52729519D01*
X63779591Y-52676795D01*
X63779589Y-52676794D01*
X63779587Y-52676793D01*
X63779583Y-52676792D01*
X63779581Y-52676791D01*
X63677727Y-52649500D01*
X63572273Y-52649500D01*
X63470418Y-52676791D01*
X63470408Y-52676795D01*
X63379087Y-52729519D01*
X63312475Y-52796132D01*
X63304343Y-52799500D01*
X61301171Y-52799500D01*
X61301163Y-52799499D01*
X61299828Y-52799499D01*
X61200173Y-52799499D01*
X61146240Y-52821839D01*
X61108101Y-52837637D01*
X60449607Y-53496132D01*
X60441475Y-53499500D01*
X60347273Y-53499500D01*
X60245418Y-53526791D01*
X60245408Y-53526795D01*
X60154087Y-53579519D01*
X60079519Y-53654087D01*
X60026795Y-53745408D01*
X60026791Y-53745418D01*
X59999500Y-53847273D01*
X49500500Y-53847273D01*
X49500500Y-52401310D01*
X72239500Y-52401310D01*
X72239500Y-52578689D01*
X72274105Y-52752662D01*
X72274105Y-52752665D01*
X72293505Y-52799500D01*
X72338489Y-52908103D01*
X72341988Y-52916549D01*
X72440533Y-53064031D01*
X72440536Y-53064035D01*
X72565965Y-53189464D01*
X72713453Y-53288013D01*
X72877334Y-53355894D01*
X73051309Y-53390500D01*
X73051311Y-53390500D01*
X73228689Y-53390500D01*
X73228691Y-53390500D01*
X73402666Y-53355894D01*
X73566547Y-53288013D01*
X73714035Y-53189464D01*
X73839464Y-53064035D01*
X73938013Y-52916547D01*
X74005894Y-52752666D01*
X74040500Y-52578691D01*
X74040500Y-52401309D01*
X74005894Y-52227334D01*
X73938013Y-52063453D01*
X73839464Y-51915965D01*
X73714035Y-51790536D01*
X73714031Y-51790533D01*
X73566549Y-51691988D01*
X73402664Y-51624105D01*
X73297901Y-51603266D01*
X73228691Y-51589500D01*
X73051309Y-51589500D01*
X72964913Y-51606685D01*
X72877337Y-51624105D01*
X72877334Y-51624105D01*
X72713450Y-51691988D01*
X72565968Y-51790533D01*
X72440533Y-51915968D01*
X72341988Y-52063450D01*
X72274105Y-52227334D01*
X72274105Y-52227337D01*
X72239500Y-52401310D01*
X49500500Y-52401310D01*
X49500500Y-49140102D01*
X72239500Y-49140102D01*
X72239500Y-50759897D01*
X72245330Y-50789209D01*
X72245331Y-50789213D01*
X72245332Y-50789214D01*
X72267541Y-50822455D01*
X72267543Y-50822457D01*
X72300787Y-50844669D01*
X72330101Y-50850500D01*
X73949898Y-50850499D01*
X73979213Y-50844669D01*
X74012457Y-50822457D01*
X74034669Y-50789213D01*
X74040500Y-50759899D01*
X74040499Y-49861310D01*
X87479500Y-49861310D01*
X87479500Y-50038689D01*
X87514105Y-50212662D01*
X87514105Y-50212665D01*
X87566609Y-50339421D01*
X87581987Y-50376547D01*
X87680536Y-50524035D01*
X87805965Y-50649464D01*
X87953453Y-50748013D01*
X88117334Y-50815894D01*
X88291309Y-50850500D01*
X88291311Y-50850500D01*
X88468689Y-50850500D01*
X88468691Y-50850500D01*
X88642666Y-50815894D01*
X88806547Y-50748013D01*
X88954035Y-50649464D01*
X89079464Y-50524035D01*
X89178013Y-50376547D01*
X89245894Y-50212666D01*
X89280500Y-50038691D01*
X89280500Y-49861309D01*
X89245894Y-49687334D01*
X89178013Y-49523453D01*
X89079464Y-49375965D01*
X88954035Y-49250536D01*
X88954031Y-49250533D01*
X88806549Y-49151988D01*
X88777853Y-49140102D01*
X88707080Y-49110787D01*
X88642664Y-49084105D01*
X88537901Y-49063266D01*
X88468691Y-49049500D01*
X88291309Y-49049500D01*
X88204913Y-49066685D01*
X88117337Y-49084105D01*
X88117334Y-49084105D01*
X87953450Y-49151988D01*
X87805968Y-49250533D01*
X87680533Y-49375968D01*
X87581988Y-49523450D01*
X87514105Y-49687334D01*
X87514105Y-49687337D01*
X87479500Y-49861310D01*
X74040499Y-49861310D01*
X74040499Y-49140102D01*
X74034669Y-49110787D01*
X74016842Y-49084106D01*
X74012458Y-49077544D01*
X74012455Y-49077541D01*
X73979214Y-49055332D01*
X73979215Y-49055332D01*
X73979213Y-49055331D01*
X73979211Y-49055330D01*
X73979210Y-49055330D01*
X73964454Y-49052395D01*
X73949899Y-49049500D01*
X73949897Y-49049500D01*
X72330102Y-49049500D01*
X72300790Y-49055330D01*
X72300785Y-49055332D01*
X72267544Y-49077541D01*
X72267541Y-49077544D01*
X72245332Y-49110785D01*
X72245330Y-49110789D01*
X72239500Y-49140102D01*
X49500500Y-49140102D01*
X49500500Y-47947273D01*
X69349500Y-47947273D01*
X69349500Y-48052726D01*
X69376791Y-48154581D01*
X69376795Y-48154591D01*
X69401437Y-48197273D01*
X69429520Y-48245913D01*
X69504087Y-48320480D01*
X69595413Y-48373207D01*
X69697273Y-48400500D01*
X69802727Y-48400500D01*
X69904587Y-48373207D01*
X69995913Y-48320480D01*
X70062525Y-48253868D01*
X70070657Y-48250500D01*
X79338000Y-48250500D01*
X79346132Y-48253868D01*
X79349500Y-48262000D01*
X79349500Y-48302727D01*
X79376793Y-48404587D01*
X79429520Y-48495913D01*
X79504087Y-48570480D01*
X79595413Y-48623207D01*
X79697273Y-48650500D01*
X79802727Y-48650500D01*
X79904587Y-48623207D01*
X79995913Y-48570480D01*
X80070480Y-48495913D01*
X80123207Y-48404587D01*
X80150500Y-48302727D01*
X80150500Y-48197273D01*
X80123207Y-48095413D01*
X80070480Y-48004087D01*
X79995913Y-47929520D01*
X79995912Y-47929519D01*
X79904591Y-47876795D01*
X79904589Y-47876794D01*
X79904587Y-47876793D01*
X79904583Y-47876792D01*
X79904581Y-47876791D01*
X79802727Y-47849500D01*
X79708525Y-47849500D01*
X79700393Y-47846132D01*
X79641898Y-47787637D01*
X79641897Y-47787636D01*
X79549828Y-47749500D01*
X79549826Y-47749500D01*
X70070657Y-47749500D01*
X70062525Y-47746132D01*
X69995912Y-47679519D01*
X69904591Y-47626795D01*
X69904589Y-47626794D01*
X69904587Y-47626793D01*
X69904583Y-47626792D01*
X69904581Y-47626791D01*
X69802727Y-47599500D01*
X69697273Y-47599500D01*
X69595418Y-47626791D01*
X69595408Y-47626795D01*
X69504087Y-47679519D01*
X69429519Y-47754087D01*
X69376795Y-47845408D01*
X69376791Y-47845418D01*
X69349500Y-47947273D01*
X49500500Y-47947273D01*
X49500500Y-43841740D01*
X55049500Y-43841740D01*
X55049500Y-45158260D01*
X55059427Y-45226393D01*
X55110802Y-45331483D01*
X55193517Y-45414198D01*
X55298607Y-45465573D01*
X55366740Y-45475500D01*
X56133260Y-45475500D01*
X56201393Y-45465573D01*
X56306483Y-45414198D01*
X56389198Y-45331483D01*
X56440573Y-45226393D01*
X56450500Y-45158260D01*
X56450500Y-44156008D01*
X57049500Y-44156008D01*
X57049500Y-44843991D01*
X57076419Y-44979324D01*
X57076419Y-44979327D01*
X57129226Y-45106813D01*
X57163602Y-45158260D01*
X57205886Y-45221542D01*
X57303458Y-45319114D01*
X57418189Y-45395775D01*
X57545672Y-45448580D01*
X57681007Y-45475500D01*
X57681009Y-45475500D01*
X57818991Y-45475500D01*
X57818993Y-45475500D01*
X57954328Y-45448580D01*
X58081811Y-45395775D01*
X58196542Y-45319114D01*
X58294114Y-45221542D01*
X58364141Y-45116740D01*
X103524500Y-45116740D01*
X103524500Y-45883260D01*
X103534427Y-45951393D01*
X103585802Y-46056483D01*
X103668517Y-46139198D01*
X103773607Y-46190573D01*
X103841740Y-46200500D01*
X105158260Y-46200500D01*
X105226393Y-46190573D01*
X105331483Y-46139198D01*
X105414198Y-46056483D01*
X105465573Y-45951393D01*
X105475500Y-45883260D01*
X105475500Y-45116740D01*
X105465573Y-45048607D01*
X105414198Y-44943517D01*
X105331483Y-44860802D01*
X105226393Y-44809427D01*
X105158260Y-44799500D01*
X103841740Y-44799500D01*
X103773607Y-44809427D01*
X103702905Y-44843991D01*
X103668515Y-44860803D01*
X103585803Y-44943515D01*
X103585802Y-44943516D01*
X103585802Y-44943517D01*
X103534427Y-45048607D01*
X103524500Y-45116740D01*
X58364141Y-45116740D01*
X58368688Y-45109935D01*
X58368689Y-45109934D01*
X58370770Y-45106819D01*
X58370770Y-45106817D01*
X58370775Y-45106811D01*
X58423580Y-44979328D01*
X58450500Y-44843993D01*
X58450500Y-44156007D01*
X58423580Y-44020672D01*
X58370775Y-43893189D01*
X58294114Y-43778458D01*
X58196542Y-43680886D01*
X58165118Y-43659889D01*
X58081813Y-43604226D01*
X58063863Y-43596791D01*
X57987577Y-43565192D01*
X57954326Y-43551419D01*
X57868899Y-43534427D01*
X57818993Y-43524500D01*
X57681007Y-43524500D01*
X57631101Y-43534427D01*
X57545675Y-43551419D01*
X57545672Y-43551419D01*
X57418186Y-43604226D01*
X57303461Y-43680883D01*
X57205883Y-43778461D01*
X57129226Y-43893186D01*
X57076419Y-44020672D01*
X57076419Y-44020675D01*
X57049500Y-44156008D01*
X56450500Y-44156008D01*
X56450500Y-43841740D01*
X56440573Y-43773607D01*
X56389198Y-43668517D01*
X56306483Y-43585802D01*
X56201393Y-43534427D01*
X56133260Y-43524500D01*
X55366740Y-43524500D01*
X55298607Y-43534427D01*
X55235682Y-43565189D01*
X55193515Y-43585803D01*
X55110803Y-43668515D01*
X55110802Y-43668516D01*
X55110802Y-43668517D01*
X55059427Y-43773607D01*
X55049500Y-43841740D01*
X49500500Y-43841740D01*
X49500500Y-41628953D01*
X49749500Y-41628953D01*
X49749500Y-41871046D01*
X49750294Y-41877077D01*
X49781099Y-42111064D01*
X49781100Y-42111068D01*
X49781101Y-42111075D01*
X49781101Y-42111076D01*
X49843754Y-42344899D01*
X49843754Y-42344900D01*
X49936401Y-42568571D01*
X50057442Y-42778220D01*
X50057444Y-42778223D01*
X50057445Y-42778224D01*
X50204820Y-42970287D01*
X50376004Y-43141471D01*
X50568067Y-43288846D01*
X50568070Y-43288848D01*
X50777719Y-43409889D01*
X50777720Y-43409889D01*
X50777723Y-43409891D01*
X51001386Y-43502535D01*
X51001390Y-43502536D01*
X51235215Y-43565189D01*
X51235216Y-43565189D01*
X51235227Y-43565192D01*
X51475246Y-43596791D01*
X51475250Y-43596791D01*
X51717332Y-43596791D01*
X51717336Y-43596791D01*
X51957355Y-43565192D01*
X51957366Y-43565189D01*
X51957367Y-43565189D01*
X52018550Y-43548794D01*
X52191196Y-43502535D01*
X52363880Y-43431007D01*
X103524500Y-43431007D01*
X103524500Y-43568993D01*
X103542284Y-43658399D01*
X103551419Y-43704324D01*
X103551419Y-43704327D01*
X103604226Y-43831813D01*
X103680883Y-43946538D01*
X103680886Y-43946542D01*
X103778458Y-44044114D01*
X103893189Y-44120775D01*
X104020672Y-44173580D01*
X104156007Y-44200500D01*
X104156009Y-44200500D01*
X104843991Y-44200500D01*
X104843993Y-44200500D01*
X104979328Y-44173580D01*
X105106811Y-44120775D01*
X105221542Y-44044114D01*
X105319114Y-43946542D01*
X105395775Y-43831811D01*
X105448580Y-43704328D01*
X105475500Y-43568993D01*
X105475500Y-43431007D01*
X105448580Y-43295672D01*
X105395775Y-43168189D01*
X105319114Y-43053458D01*
X105221542Y-42955886D01*
X105221538Y-42955883D01*
X105106813Y-42879226D01*
X104979326Y-42826419D01*
X104897831Y-42810209D01*
X104843993Y-42799500D01*
X104156007Y-42799500D01*
X104088800Y-42812868D01*
X104020675Y-42826419D01*
X104020672Y-42826419D01*
X103893186Y-42879226D01*
X103778461Y-42955883D01*
X103680883Y-43053461D01*
X103604226Y-43168186D01*
X103551419Y-43295672D01*
X103551419Y-43295675D01*
X103524500Y-43431007D01*
X52363880Y-43431007D01*
X52390896Y-43419817D01*
X52396422Y-43417527D01*
X52414859Y-43409891D01*
X52624515Y-43288846D01*
X52816578Y-43141471D01*
X52987762Y-42970287D01*
X53135137Y-42778224D01*
X53256182Y-42568568D01*
X53348826Y-42344905D01*
X53401398Y-42148703D01*
X53411480Y-42111076D01*
X53411480Y-42111075D01*
X53411479Y-42111075D01*
X53411483Y-42111064D01*
X53442041Y-41878955D01*
X107806918Y-41878955D01*
X107806918Y-41917098D01*
X107806918Y-42121045D01*
X107838517Y-42361064D01*
X107838518Y-42361068D01*
X107838519Y-42361075D01*
X107838519Y-42361076D01*
X107901172Y-42594899D01*
X107901172Y-42594900D01*
X107993819Y-42818571D01*
X108114860Y-43028220D01*
X108114862Y-43028223D01*
X108114863Y-43028224D01*
X108262238Y-43220287D01*
X108433422Y-43391471D01*
X108625485Y-43538846D01*
X108625488Y-43538848D01*
X108835137Y-43659889D01*
X108835138Y-43659889D01*
X108835141Y-43659891D01*
X109058804Y-43752535D01*
X109058808Y-43752536D01*
X109292633Y-43815189D01*
X109292634Y-43815189D01*
X109292645Y-43815192D01*
X109532664Y-43846791D01*
X109532668Y-43846791D01*
X109774750Y-43846791D01*
X109774754Y-43846791D01*
X110014773Y-43815192D01*
X110014784Y-43815189D01*
X110014785Y-43815189D01*
X110075968Y-43798794D01*
X110248614Y-43752535D01*
X110472277Y-43659891D01*
X110681933Y-43538846D01*
X110873996Y-43391471D01*
X111045180Y-43220287D01*
X111192555Y-43028224D01*
X111313600Y-42818568D01*
X111406244Y-42594905D01*
X111468901Y-42361064D01*
X111500500Y-42121045D01*
X111500500Y-41878955D01*
X111468901Y-41638936D01*
X111466227Y-41628958D01*
X111406245Y-41405100D01*
X111406245Y-41405099D01*
X111406244Y-41405095D01*
X111313600Y-41181432D01*
X111300234Y-41158282D01*
X111192557Y-40971779D01*
X111168654Y-40940628D01*
X111045180Y-40779713D01*
X110873996Y-40608529D01*
X110681933Y-40461154D01*
X110681932Y-40461153D01*
X110681929Y-40461151D01*
X110472280Y-40340110D01*
X110248609Y-40247463D01*
X110014784Y-40184810D01*
X110014777Y-40184809D01*
X110014773Y-40184808D01*
X109820989Y-40159295D01*
X109774755Y-40153209D01*
X109774754Y-40153209D01*
X109532664Y-40153209D01*
X109532662Y-40153209D01*
X109440193Y-40165382D01*
X109292645Y-40184808D01*
X109292641Y-40184808D01*
X109292633Y-40184810D01*
X109292632Y-40184810D01*
X109058809Y-40247463D01*
X109058808Y-40247463D01*
X108835137Y-40340110D01*
X108625488Y-40461151D01*
X108553461Y-40516419D01*
X108433422Y-40608529D01*
X108433417Y-40608534D01*
X108433415Y-40608535D01*
X108262244Y-40779706D01*
X108262243Y-40779708D01*
X108262238Y-40779713D01*
X108170128Y-40899752D01*
X108114860Y-40971779D01*
X107993819Y-41181428D01*
X107901172Y-41405099D01*
X107901172Y-41405100D01*
X107838519Y-41638923D01*
X107838519Y-41638924D01*
X107838517Y-41638932D01*
X107838517Y-41638936D01*
X107806918Y-41878955D01*
X53442041Y-41878955D01*
X53443082Y-41871045D01*
X53443082Y-41628955D01*
X53411483Y-41388936D01*
X53348826Y-41155095D01*
X53256182Y-40931432D01*
X53242816Y-40908282D01*
X53135139Y-40721779D01*
X53135137Y-40721776D01*
X52987762Y-40529713D01*
X52816578Y-40358529D01*
X52624515Y-40211154D01*
X52624514Y-40211153D01*
X52624511Y-40211151D01*
X52414862Y-40090110D01*
X52191191Y-39997463D01*
X51957366Y-39934810D01*
X51957359Y-39934809D01*
X51957355Y-39934808D01*
X51763571Y-39909295D01*
X51717337Y-39903209D01*
X51717336Y-39903209D01*
X51475246Y-39903209D01*
X51475244Y-39903209D01*
X51382775Y-39915382D01*
X51235227Y-39934808D01*
X51235223Y-39934808D01*
X51235215Y-39934810D01*
X51235214Y-39934810D01*
X51001391Y-39997463D01*
X51001390Y-39997463D01*
X50777719Y-40090110D01*
X50568070Y-40211151D01*
X50517442Y-40250000D01*
X50376004Y-40358529D01*
X50375999Y-40358534D01*
X50375997Y-40358535D01*
X50204826Y-40529706D01*
X50204825Y-40529708D01*
X50204820Y-40529713D01*
X50144339Y-40608534D01*
X50057442Y-40721779D01*
X49936401Y-40931428D01*
X49843754Y-41155099D01*
X49843754Y-41155100D01*
X49781101Y-41388923D01*
X49781101Y-41388924D01*
X49749500Y-41628953D01*
X49500500Y-41628953D01*
X49500500Y-40250649D01*
X49500572Y-40249361D01*
X49507846Y-40184808D01*
X49512879Y-40140136D01*
X49513452Y-40137627D01*
X49549539Y-40034495D01*
X49550657Y-40032175D01*
X49572468Y-39997463D01*
X49608786Y-39939662D01*
X49610384Y-39937657D01*
X49687657Y-39860384D01*
X49689662Y-39858786D01*
X49782176Y-39800656D01*
X49784495Y-39799539D01*
X49887629Y-39763451D01*
X49890136Y-39762879D01*
X49999361Y-39750571D01*
X50000649Y-39750500D01*
X50065892Y-39750500D01*
X111184108Y-39750500D01*
X111249431Y-39750500D01*
X111250558Y-39750555D01*
G37*
%TD.AperFunction*%
%TD*%
M02*
