%TF.GenerationSoftware,KiCad,Pcbnew,9.0.0*%
%TF.CreationDate,2025-10-30T20:26:06-05:00*%
%TF.ProjectId,kicad_proj1st,6b696361-645f-4707-926f-6a3173742e6b,rev?*%
%TF.SameCoordinates,Original*%
%TF.FileFunction,Soldermask,Bot*%
%TF.FilePolarity,Negative*%
%FSLAX46Y46*%
G04 Gerber Fmt 4.6, Leading zero omitted, Abs format (unit mm)*
G04 Created by KiCad (PCBNEW 9.0.0) date 2025-10-30 20:26:06*
%MOMM*%
%LPD*%
G01*
G04 APERTURE LIST*
G04 Aperture macros list*
%AMRoundRect*
0 Rectangle with rounded corners*
0 $1 Rounding radius*
0 $2 $3 $4 $5 $6 $7 $8 $9 X,Y pos of 4 corners*
0 Add a 4 corners polygon primitive as box body*
4,1,4,$2,$3,$4,$5,$6,$7,$8,$9,$2,$3,0*
0 Add four circle primitives for the rounded corners*
1,1,$1+$1,$2,$3*
1,1,$1+$1,$4,$5*
1,1,$1+$1,$6,$7*
1,1,$1+$1,$8,$9*
0 Add four rect primitives between the rounded corners*
20,1,$1+$1,$2,$3,$4,$5,0*
20,1,$1+$1,$4,$5,$6,$7,0*
20,1,$1+$1,$6,$7,$8,$9,0*
20,1,$1+$1,$8,$9,$2,$3,0*%
G04 Aperture macros list end*
%ADD10RoundRect,0.250000X0.625000X-0.350000X0.625000X0.350000X-0.625000X0.350000X-0.625000X-0.350000X0*%
%ADD11O,1.750000X1.200000*%
%ADD12RoundRect,0.250000X-0.625000X0.350000X-0.625000X-0.350000X0.625000X-0.350000X0.625000X0.350000X0*%
%ADD13R,1.700000X1.700000*%
%ADD14O,1.700000X1.700000*%
%ADD15R,1.600000X1.600000*%
%ADD16O,1.600000X1.600000*%
%ADD17RoundRect,0.250000X-0.350000X-0.625000X0.350000X-0.625000X0.350000X0.625000X-0.350000X0.625000X0*%
%ADD18O,1.200000X1.750000*%
G04 APERTURE END LIST*
D10*
%TO.C,J3*%
X104500000Y-45500000D03*
D11*
X104500000Y-43500000D03*
%TD*%
D12*
%TO.C,J5*%
X106250000Y-91000000D03*
D11*
X106250000Y-93000000D03*
%TD*%
D13*
%TO.C,J2*%
X54750000Y-61920000D03*
D14*
X54750000Y-64460000D03*
X54750000Y-67000000D03*
X54750000Y-69540000D03*
X54750000Y-72080000D03*
%TD*%
D15*
%TO.C,A2*%
X73140000Y-49950000D03*
D16*
X73140000Y-52490000D03*
X73140000Y-55030000D03*
X73140000Y-57570000D03*
X73140000Y-60110000D03*
X73140000Y-62650000D03*
X73140000Y-65190000D03*
X73140000Y-67730000D03*
X73140000Y-70270000D03*
X73140000Y-72810000D03*
X73140000Y-75350000D03*
X73140000Y-77890000D03*
X73140000Y-80430000D03*
X73140000Y-82970000D03*
X73140000Y-85510000D03*
X88380000Y-85510000D03*
X88380000Y-82970000D03*
X88380000Y-80430000D03*
X88380000Y-77890000D03*
X88380000Y-75350000D03*
X88380000Y-72810000D03*
X88380000Y-70270000D03*
X88380000Y-67730000D03*
X88380000Y-65190000D03*
X88380000Y-62650000D03*
X88380000Y-60110000D03*
X88380000Y-57570000D03*
X88380000Y-55030000D03*
X88380000Y-52490000D03*
X88380000Y-49950000D03*
%TD*%
D12*
%TO.C,J6*%
X56500000Y-90750000D03*
D11*
X56500000Y-92750000D03*
%TD*%
D17*
%TO.C,J1*%
X62500000Y-56750000D03*
D18*
X64500000Y-56750000D03*
%TD*%
D17*
%TO.C,J4*%
X55750000Y-44500000D03*
D18*
X57750000Y-44500000D03*
%TD*%
M02*
