M48
; DRILL file {KiCad 9.0.0} date 2025-10-30T20:26:37-0500
; FORMAT={-:-/ absolute / metric / decimal}
; #@! TF.CreationDate,2025-10-30T20:26:37-05:00
; #@! TF.GenerationSoftware,Kicad,Pcbnew,9.0.0
; #@! TF.FileFunction,Plated,1,4,PTH
FMAT,2
METRIC
; #@! TA.AperFunction,Plated,PTH,ViaDrill
T1C0.300
; #@! TA.AperFunction,Plated,PTH,ComponentDrill
T2C0.750
; #@! TA.AperFunction,Plated,PTH,ComponentDrill
T3C1.000
%
G90
G05
T1
X53.375Y-74.7
X54.6Y-74.5
X55.825Y-77.5
X56.975Y-73.325
X58.05Y-61.4
X58.35Y-63.275
X58.5Y-72.0
X58.55Y-60.5
X59.25Y-66.25
X59.75Y-74.75
X59.854Y-70.604
X60.4Y-53.9
X60.5Y-62.5
X60.5Y-66.125
X60.75Y-67.0
X60.75Y-69.0
X61.0Y-71.25
X61.5Y-70.0
X61.75Y-68.25
X63.5Y-64.75
X63.625Y-53.05
X63.825Y-68.5
X64.0Y-74.5
X64.75Y-66.25
X64.925Y-73.875
X65.0Y-73.0
X65.25Y-62.75
X65.675Y-73.225
X65.75Y-66.0
X65.75Y-75.5
X66.0Y-81.25
X66.25Y-69.75
X66.325Y-76.875
X66.4Y-89.575
X66.5Y-72.0
X66.525Y-61.025
X67.5Y-44.075
X67.5Y-67.75
X67.75Y-82.0
X67.95Y-49.95
X68.175Y-66.65
X68.75Y-68.5
X69.25Y-57.5
X69.325Y-86.5
X69.375Y-64.6
X69.5Y-63.5
X69.55Y-76.225
X69.75Y-48.0
X70.0Y-68.25
X70.5Y-88.75
X75.0Y-88.75
X75.75Y-72.75
X79.75Y-48.25
X84.25Y-66.25
X85.0Y-81.0
X85.25Y-86.5
X85.5Y-57.0
X90.75Y-63.5
X91.25Y-67.25
X91.25Y-84.75
X93.0Y-79.0
X93.0Y-81.5
X93.725Y-91.575
X94.125Y-93.65
X94.95Y-77.775
X95.175Y-67.325
X96.05Y-53.3
X96.1Y-65.275
X96.15Y-49.825
X96.25Y-82.0
X96.55Y-84.575
X96.675Y-74.975
X96.75Y-86.85
X97.35Y-83.675
X98.0Y-58.0
X98.55Y-77.925
X98.675Y-61.3
X99.475Y-63.175
X99.65Y-59.65
X99.75Y-75.975
X100.75Y-65.25
X101.125Y-75.65
X101.25Y-68.5
X101.675Y-66.825
X102.0Y-68.75
X102.046Y-74.821
X102.3Y-63.575
X102.325Y-76.775
X103.45Y-76.225
X103.875Y-69.325
X105.75Y-58.0
X105.75Y-62.25
X106.75Y-68.75
X107.225Y-67.5
X107.425Y-73.15
X108.475Y-69.775
X108.95Y-75.7
X110.5Y-77.225
T2
X55.75Y-44.5
X56.5Y-90.75
X56.5Y-92.75
X57.75Y-44.5
X62.5Y-56.75
X64.5Y-56.75
X104.5Y-43.5
X104.5Y-45.5
X106.25Y-91.0
X106.25Y-93.0
T3
X54.75Y-61.92
X54.75Y-64.46
X54.75Y-67.0
X54.75Y-69.54
X54.75Y-72.08
X73.14Y-49.95
X73.14Y-52.49
X73.14Y-55.03
X73.14Y-57.57
X73.14Y-60.11
X73.14Y-62.65
X73.14Y-65.19
X73.14Y-67.73
X73.14Y-70.27
X73.14Y-72.81
X73.14Y-75.35
X73.14Y-77.89
X73.14Y-80.43
X73.14Y-82.97
X73.14Y-85.51
X88.38Y-49.95
X88.38Y-52.49
X88.38Y-55.03
X88.38Y-57.57
X88.38Y-60.11
X88.38Y-62.65
X88.38Y-65.19
X88.38Y-67.73
X88.38Y-70.27
X88.38Y-72.81
X88.38Y-75.35
X88.38Y-77.89
X88.38Y-80.43
X88.38Y-82.97
X88.38Y-85.51
M30
