%TF.GenerationSoftware,KiCad,Pcbnew,9.0.0*%
%TF.CreationDate,2025-10-30T20:26:06-05:00*%
%TF.ProjectId,kicad_proj1st,6b696361-645f-4707-926f-6a3173742e6b,rev?*%
%TF.SameCoordinates,Original*%
%TF.FileFunction,Paste,Top*%
%TF.FilePolarity,Positive*%
%FSLAX46Y46*%
G04 Gerber Fmt 4.6, Leading zero omitted, Abs format (unit mm)*
G04 Created by KiCad (PCBNEW 9.0.0) date 2025-10-30 20:26:06*
%MOMM*%
%LPD*%
G01*
G04 APERTURE LIST*
G04 Aperture macros list*
%AMRoundRect*
0 Rectangle with rounded corners*
0 $1 Rounding radius*
0 $2 $3 $4 $5 $6 $7 $8 $9 X,Y pos of 4 corners*
0 Add a 4 corners polygon primitive as box body*
4,1,4,$2,$3,$4,$5,$6,$7,$8,$9,$2,$3,0*
0 Add four circle primitives for the rounded corners*
1,1,$1+$1,$2,$3*
1,1,$1+$1,$4,$5*
1,1,$1+$1,$6,$7*
1,1,$1+$1,$8,$9*
0 Add four rect primitives between the rounded corners*
20,1,$1+$1,$2,$3,$4,$5,0*
20,1,$1+$1,$4,$5,$6,$7,0*
20,1,$1+$1,$6,$7,$8,$9,0*
20,1,$1+$1,$8,$9,$2,$3,0*%
G04 Aperture macros list end*
%ADD10RoundRect,0.200000X0.200000X0.275000X-0.200000X0.275000X-0.200000X-0.275000X0.200000X-0.275000X0*%
%ADD11RoundRect,0.150000X-0.587500X-0.150000X0.587500X-0.150000X0.587500X0.150000X-0.587500X0.150000X0*%
%ADD12RoundRect,0.025000X-0.100000X-0.115000X0.100000X-0.115000X0.100000X0.115000X-0.100000X0.115000X0*%
%ADD13RoundRect,0.035000X-0.140000X-0.425000X0.140000X-0.425000X0.140000X0.425000X-0.140000X0.425000X0*%
%ADD14RoundRect,0.052000X-0.448000X-0.208000X0.448000X-0.208000X0.448000X0.208000X-0.448000X0.208000X0*%
%ADD15RoundRect,0.062500X-0.212500X-0.062500X0.212500X-0.062500X0.212500X0.062500X-0.212500X0.062500X0*%
%ADD16RoundRect,0.062500X0.212500X0.062500X-0.212500X0.062500X-0.212500X-0.062500X0.212500X-0.062500X0*%
%ADD17RoundRect,0.075000X-0.350000X-0.075000X0.350000X-0.075000X0.350000X0.075000X-0.350000X0.075000X0*%
%ADD18RoundRect,0.075000X0.075000X-0.350000X0.075000X0.350000X-0.075000X0.350000X-0.075000X-0.350000X0*%
%ADD19RoundRect,0.200000X-0.200000X-0.275000X0.200000X-0.275000X0.200000X0.275000X-0.200000X0.275000X0*%
%ADD20RoundRect,0.225000X-0.225000X-0.250000X0.225000X-0.250000X0.225000X0.250000X-0.225000X0.250000X0*%
%ADD21RoundRect,0.200000X0.275000X-0.200000X0.275000X0.200000X-0.275000X0.200000X-0.275000X-0.200000X0*%
%ADD22RoundRect,0.150000X0.587500X0.150000X-0.587500X0.150000X-0.587500X-0.150000X0.587500X-0.150000X0*%
%ADD23RoundRect,0.062500X-0.127500X-0.062500X0.127500X-0.062500X0.127500X0.062500X-0.127500X0.062500X0*%
%ADD24RoundRect,0.125000X-0.125000X-0.125000X0.125000X-0.125000X0.125000X0.125000X-0.125000X0.125000X0*%
%ADD25R,2.000000X3.400000*%
G04 APERTURE END LIST*
D10*
%TO.C,R4*%
X69750000Y-91750000D03*
X68100000Y-91750000D03*
%TD*%
D11*
%TO.C,Q3*%
X95625000Y-91050000D03*
X95625000Y-92950000D03*
X97500000Y-92000000D03*
%TD*%
D10*
%TO.C,R10*%
X61500000Y-73250000D03*
X59850000Y-73250000D03*
%TD*%
D12*
%TO.C,U3*%
X63450000Y-68440000D03*
D13*
X63475000Y-70240000D03*
D14*
X63825000Y-69040000D03*
D13*
X64175000Y-70240000D03*
D12*
X64200000Y-68440000D03*
D15*
X62650000Y-68750000D03*
X62650000Y-69250000D03*
X62650000Y-69750000D03*
X62650000Y-70250000D03*
D16*
X65000000Y-70250000D03*
X65000000Y-69750000D03*
X65000000Y-69250000D03*
X65000000Y-68750000D03*
%TD*%
D17*
%TO.C,U1*%
X99350000Y-70500000D03*
X99350000Y-71000000D03*
X99350000Y-71500000D03*
X99350000Y-72000000D03*
X99350000Y-72500000D03*
X99350000Y-73000000D03*
D18*
X100050000Y-73700000D03*
X100550000Y-73700000D03*
X101050000Y-73700000D03*
X101550000Y-73700000D03*
X102050000Y-73700000D03*
X102550000Y-73700000D03*
D17*
X103250000Y-73000000D03*
X103250000Y-72500000D03*
X103250000Y-72000000D03*
X103250000Y-71500000D03*
X103250000Y-71000000D03*
X103250000Y-70500000D03*
D18*
X102550000Y-69800000D03*
X102050000Y-69800000D03*
X101550000Y-69800000D03*
X101050000Y-69800000D03*
X100550000Y-69800000D03*
X100050000Y-69800000D03*
%TD*%
D19*
%TO.C,R6*%
X100925000Y-84000000D03*
X102575000Y-84000000D03*
%TD*%
D11*
%TO.C,Q1*%
X96125000Y-43750000D03*
X96125000Y-45650000D03*
X98000000Y-44700000D03*
%TD*%
D20*
%TO.C,C6*%
X94450000Y-55250000D03*
X96000000Y-55250000D03*
%TD*%
D21*
%TO.C,R2*%
X69425000Y-45325000D03*
X69425000Y-43675000D03*
%TD*%
D19*
%TO.C,R5*%
X105675000Y-66000000D03*
X107325000Y-66000000D03*
%TD*%
%TO.C,R11*%
X55350000Y-55750000D03*
X57000000Y-55750000D03*
%TD*%
D22*
%TO.C,Q2*%
X65750000Y-45450000D03*
X65750000Y-43550000D03*
X63875000Y-44500000D03*
%TD*%
D20*
%TO.C,C14*%
X106700000Y-84000000D03*
X108250000Y-84000000D03*
%TD*%
D19*
%TO.C,R1*%
X90850000Y-43500000D03*
X92500000Y-43500000D03*
%TD*%
%TO.C,R7*%
X67350000Y-80000000D03*
X69000000Y-80000000D03*
%TD*%
D20*
%TO.C,C12*%
X59200000Y-51750000D03*
X60750000Y-51750000D03*
%TD*%
%TO.C,C7*%
X66450000Y-51500000D03*
X68000000Y-51500000D03*
%TD*%
D19*
%TO.C,R9*%
X67600000Y-74750000D03*
X69250000Y-74750000D03*
%TD*%
D22*
%TO.C,Q4*%
X64750000Y-92950000D03*
X64750000Y-91050000D03*
X62875000Y-92000000D03*
%TD*%
D20*
%TO.C,C8*%
X66700000Y-65000000D03*
X68250000Y-65000000D03*
%TD*%
%TO.C,C4*%
X93450000Y-74500000D03*
X95000000Y-74500000D03*
%TD*%
%TO.C,C5*%
X106700000Y-55250000D03*
X108250000Y-55250000D03*
%TD*%
D19*
%TO.C,R8*%
X58600000Y-64750000D03*
X60250000Y-64750000D03*
%TD*%
D20*
%TO.C,C11*%
X52450000Y-81000000D03*
X54000000Y-81000000D03*
%TD*%
%TO.C,C1*%
X100950000Y-78750000D03*
X102500000Y-78750000D03*
%TD*%
%TO.C,C10*%
X66700000Y-85500000D03*
X68250000Y-85500000D03*
%TD*%
D19*
%TO.C,R3*%
X90675000Y-94250000D03*
X92325000Y-94250000D03*
%TD*%
D20*
%TO.C,C13*%
X107975000Y-78250000D03*
X109525000Y-78250000D03*
%TD*%
%TO.C,C3*%
X93950000Y-68500000D03*
X95500000Y-68500000D03*
%TD*%
%TO.C,C2*%
X106700000Y-71250000D03*
X108250000Y-71250000D03*
%TD*%
D23*
%TO.C,U2*%
X100410000Y-58775000D03*
D24*
X100550000Y-58650000D03*
X101350000Y-58650000D03*
X102150000Y-58650000D03*
X102950000Y-58650000D03*
X103750000Y-58650000D03*
X103750000Y-59450000D03*
X103750000Y-60250000D03*
X102950000Y-60250000D03*
X102150000Y-60250000D03*
X101350000Y-60250000D03*
X100550000Y-60250000D03*
X100550000Y-59450000D03*
%TD*%
D20*
%TO.C,C9*%
X93450000Y-83750000D03*
X95000000Y-83750000D03*
%TD*%
D25*
%TO.C,L1*%
X58550000Y-80250000D03*
X64250000Y-80250000D03*
%TD*%
M02*
